<svg width="16" height="28" viewBox="0 0 16 28" fill="none" xmlns="http://www.w3.org/2000/svg">
<g id="Icon" clip-path="url(#clip0_602_301)">
<path id="Vector" d="M10.7388 12.859C10.7388 12.859 10.9272 12.6707 11.3039 12.2939C11.6807 11.9171 11.8691 11.1963 11.8691 10.1313C11.8691 9.06629 11.4923 8.15704 10.7388 7.40351C9.98528 6.64998 9.07602 6.27322 8.01104 6.27322C6.94605 6.27322 6.0368 6.64998 5.28327 7.40351C4.52974 8.15704 4.15298 9.06629 4.15298 10.1313C4.15298 11.1963 4.52974 12.1055 5.28327 12.859C6.0368 13.6126 6.94605 13.9893 8.01104 13.9893C9.07602 13.9893 9.98528 13.6126 10.7388 12.859ZM15.7272 10.1313C15.7272 11.2264 15.5614 12.1256 15.2298 12.8289L9.74415 24.4935C9.5834 24.8251 9.34478 25.0863 9.0283 25.2772C8.71182 25.4681 8.37273 25.5635 8.01104 25.5635C7.64934 25.5635 7.31026 25.4681 6.99378 25.2772C6.67729 25.0863 6.4437 24.8251 6.293 24.4935L0.79225 12.8289C0.460698 12.1256 0.294922 11.2264 0.294922 10.1313C0.294922 8.00131 1.04845 6.18279 2.5555 4.67574C4.06256 3.16869 5.88107 2.41516 8.01104 2.41516C10.141 2.41516 11.9595 3.16869 13.4666 4.67574C14.9736 6.18279 15.7272 8.00131 15.7272 10.1313Z" fill="white"/>
</g>
<defs>
<clipPath id="clip0_602_301">
<rect width="15.4477" height="27.0064" fill="white" transform="matrix(1 0 0 -1 0.286621 27.4925)"/>
</clipPath>
</defs>
</svg>
