<svg width="21" height="22" viewBox="0 0 21 22" fill="none" xmlns="http://www.w3.org/2000/svg">
<g id="List &#226;&#134;&#146; Item" clip-path="url(#clip0_294_834)">
<path id="Vector" d="M15.9297 10.1523C16.112 10.1523 16.2031 10.2305 16.2031 10.3867V11.5586C16.2031 11.7409 16.112 11.832 15.9297 11.832H15.4219L14.9531 16.168C14.9271 16.6107 14.7383 17.0013 14.3867 17.3398C14.0352 17.6784 13.651 17.8737 13.2344 17.9258L13.6641 18.5117C13.7161 18.5638 13.7422 18.6159 13.7422 18.668C13.7422 18.8503 13.651 18.9414 13.4688 18.9414H12.5312C12.4531 18.9414 12.388 18.9023 12.3359 18.8242L11.6328 17.9258H5.07031L4.36719 18.8242C4.3151 18.9023 4.25 18.9414 4.17188 18.9414H3.23438C3.05208 18.9414 2.96094 18.8503 2.96094 18.668C2.96094 18.6159 2.98698 18.5638 3.03906 18.5117L3.46875 17.9258C3.05208 17.8737 2.66797 17.6784 2.31641 17.3398C1.96484 17.0013 1.77604 16.6107 1.75 16.168L1.28125 11.832H0.773438C0.591146 11.832 0.5 11.7409 0.5 11.5586V10.3867C0.5 10.2044 0.591146 10.1133 0.773438 10.1133H1.28125V9.01953C1.28125 8.83724 1.3724 8.74609 1.55469 8.74609H1.94531V5.23047C1.94531 4.68359 2.14062 4.21484 2.53125 3.82422C2.92188 3.43359 3.39062 3.23828 3.9375 3.23828C4.48438 3.23828 4.95312 3.43359 5.34375 3.82422C5.73438 4.21484 5.92969 4.68359 5.92969 5.23047V5.54297C6.21615 5.56901 6.47656 5.67318 6.71094 5.85547C6.94531 6.03776 7.13411 6.26562 7.27734 6.53906C7.42057 6.8125 7.49219 7.09245 7.49219 7.37891C7.49219 7.5612 7.40104 7.65234 7.21875 7.65234H4.05469C3.8724 7.65234 3.78125 7.5612 3.78125 7.37891C3.78125 6.9362 3.9375 6.53255 4.25 6.16797C4.5625 5.80339 4.9401 5.59505 5.38281 5.54297V5.23047C5.38281 4.83984 5.23958 4.5013 4.95312 4.21484C4.66667 3.92839 4.32812 3.78516 3.9375 3.78516C3.67708 3.78516 3.4362 3.85026 3.21484 3.98047C2.99349 4.11068 2.81771 4.28646 2.6875 4.50781C2.55729 4.72917 2.49219 4.97005 2.49219 5.23047V8.74609H2.92188C3.10417 8.74609 3.19531 8.83724 3.19531 9.01953V10.1133H9.17188C9.19792 9.85286 9.32161 9.61198 9.54297 9.39062C9.76432 9.16927 10.0052 9.04557 10.2656 9.01953C10.3438 8.83724 10.4544 8.66797 10.5977 8.51172C10.7409 8.35547 10.9102 8.23177 11.1055 8.14062C11.3008 8.04948 11.5026 8.00391 11.7109 8.00391C12.2057 8.00391 12.5964 8.19922 12.8828 8.58984C13.1432 8.43359 13.4297 8.35547 13.7422 8.35547C14.2109 8.35547 14.6016 8.51172 14.9141 8.82422C15.2266 9.13672 15.3828 9.52734 15.3828 9.99609C15.3828 10.0221 15.3828 10.0742 15.3828 10.1523H15.9297ZM6.94531 7.10547C6.86719 6.81901 6.70443 6.57161 6.45703 6.36328C6.20964 6.15495 5.94271 6.05078 5.65625 6.05078C5.44792 6.05078 5.2526 6.09635 5.07031 6.1875C4.88802 6.27865 4.73828 6.40234 4.62109 6.55859C4.50391 6.71484 4.41927 6.89714 4.36719 7.10547H6.94531ZM10.4609 9.52734C10.2786 9.52734 10.1159 9.58594 9.97266 9.70312C9.82943 9.82031 9.74479 9.97005 9.71875 10.1523H14.8359C14.8359 10.1003 14.8359 10.0482 14.8359 9.99609C14.8359 9.83984 14.8099 9.69661 14.7578 9.56641C14.7057 9.4362 14.6276 9.31901 14.5234 9.21484C14.4193 9.11068 14.3021 9.03255 14.1719 8.98047C14.0417 8.92839 13.8984 8.90234 13.7422 8.90234C13.4557 8.90234 13.2083 8.99349 13 9.17578C12.9479 9.22786 12.8828 9.25391 12.8047 9.25391C12.7005 9.25391 12.6224 9.20182 12.5703 9.09766C12.388 8.73307 12.1016 8.55078 11.7109 8.55078C11.4766 8.55078 11.2682 8.62891 11.0859 8.78516C10.9036 8.94141 10.7995 9.1237 10.7734 9.33203C10.7214 9.46224 10.6302 9.52734 10.5 9.52734H10.4609ZM1.82812 9.29297V10.1133H2.64844V9.29297H1.82812ZM4.05469 18.3945L4.40625 17.9258H4.17188L3.82031 18.3945H4.05469ZM12.6875 18.3945H12.8828L12.5312 17.9258H12.2969L12.6875 18.3945ZM14.4062 16.1289L14.875 11.832H1.82812L2.29688 16.1289C2.32292 16.4674 2.47266 16.7604 2.74609 17.0078C3.01953 17.2552 3.32552 17.3789 3.66406 17.3789H13.0391C13.3776 17.3789 13.6836 17.2552 13.957 17.0078C14.2305 16.7604 14.3802 16.4674 14.4062 16.1289ZM15.6562 11.2852V10.6602H1.04688V11.2852H15.6562ZM5.38281 8.16016C5.38281 7.97786 5.47396 7.88672 5.65625 7.88672C5.83854 7.88672 5.92969 7.97786 5.92969 8.16016V8.86328C5.92969 9.04557 5.83854 9.13672 5.65625 9.13672C5.47396 9.13672 5.38281 9.04557 5.38281 8.86328V8.16016ZM4.32812 8.04297C4.38021 7.9388 4.47135 7.88672 4.60156 7.88672C4.78385 7.88672 4.875 7.97786 4.875 8.16016C4.875 8.21224 4.86198 8.2513 4.83594 8.27734L4.52344 8.98047C4.47135 9.08464 4.39323 9.13672 4.28906 9.13672C4.10677 9.13672 4.01562 9.04557 4.01562 8.86328C4.01562 8.83724 4.01562 8.79818 4.01562 8.74609L4.32812 8.04297ZM6.59375 7.92578C6.61979 7.89974 6.65885 7.88672 6.71094 7.88672C6.84115 7.88672 6.91927 7.9388 6.94531 8.04297L7.25781 8.74609C7.28385 8.79818 7.29688 8.83724 7.29688 8.86328C7.29688 9.04557 7.20573 9.13672 7.02344 9.13672C6.89323 9.13672 6.8151 9.08464 6.78906 8.98047L6.47656 8.27734C6.45052 8.2513 6.4375 8.21224 6.4375 8.16016C6.4375 8.05599 6.48958 7.97786 6.59375 7.92578Z" fill="#007BFF"/>
</g>
<defs>
<clipPath id="clip0_294_834">
<rect width="20" height="21" fill="white" transform="matrix(1 0 0 -1 0.5 21.5898)"/>
</clipPath>
</defs>
</svg>
