<svg width="21" height="22" viewBox="0 0 21 22" fill="none" xmlns="http://www.w3.org/2000/svg">
<g id="List &#226;&#134;&#146; Item" clip-path="url(#clip0_288_750)">
<path id="Vector" d="M2.68164 4.02344C2.68164 4.02344 2.77604 3.92904 2.96484 3.74023C3.15365 3.55143 3.50846 3.45703 4.0293 3.45703C4.55013 3.45703 4.99284 3.64583 5.35742 4.02344C5.72201 4.40104 5.9043 4.85026 5.9043 5.37109C5.9043 5.89193 5.72201 6.33464 5.35742 6.69922C4.99284 7.0638 4.55013 7.24609 4.0293 7.24609C3.66471 7.24609 3.33919 7.16146 3.05273 6.99219C2.76628 6.82292 2.53841 6.59505 2.36914 6.30859C2.19987 6.02214 2.11523 5.70964 2.11523 5.37109C2.11523 4.85026 2.30404 4.40104 2.68164 4.02344ZM4.0293 6.66016C4.36784 6.66016 4.66732 6.53646 4.92773 6.28906C5.18815 6.04167 5.31836 5.73568 5.31836 5.37109C5.31836 5.00651 5.18815 4.69401 4.92773 4.43359C4.66732 4.17318 4.36133 4.04297 4.00977 4.04297C3.6582 4.04297 3.35221 4.17318 3.0918 4.43359C2.83138 4.69401 2.70117 5.00651 2.70117 5.37109C2.70117 5.60547 2.75977 5.82031 2.87695 6.01562C2.99414 6.21094 3.1569 6.36719 3.36523 6.48438C3.57357 6.60156 3.79492 6.66016 4.0293 6.66016ZM3.7168 2.32422C3.7168 2.11588 3.81445 2.01172 4.00977 2.01172C4.20508 2.01172 4.30273 2.11588 4.30273 2.32422V2.91016C4.30273 3.09245 4.20508 3.18359 4.00977 3.18359C3.81445 3.18359 3.7168 3.09245 3.7168 2.91016V2.32422ZM5.98242 2.98828C6.11263 2.85807 6.24935 2.86458 6.39258 3.00781C6.53581 3.15104 6.5293 3.28776 6.37305 3.41797L5.94336 3.84766C5.89128 3.89974 5.82617 3.92578 5.74805 3.92578C5.66992 3.92578 5.60482 3.89974 5.55273 3.84766C5.42253 3.69141 5.42253 3.54818 5.55273 3.41797L5.98242 2.98828ZM7.07617 5.05859C7.25846 5.05859 7.34961 5.15625 7.34961 5.35156C7.34961 5.54688 7.25846 5.64453 7.07617 5.64453H6.49023C6.2819 5.64453 6.17773 5.54688 6.17773 5.35156C6.17773 5.15625 6.2819 5.05859 6.49023 5.05859H7.07617ZM6.37305 7.32422C6.5293 7.45443 6.5293 7.58464 6.37305 7.71484C6.32096 7.79297 6.25586 7.83203 6.17773 7.83203C6.09961 7.83203 6.03451 7.79297 5.98242 7.71484L5.55273 7.32422C5.42253 7.16797 5.42253 7.02474 5.55273 6.89453C5.68294 6.76432 5.81315 6.76432 5.94336 6.89453L6.37305 7.32422ZM3.7168 7.83203C3.7168 7.6237 3.81445 7.51953 4.00977 7.51953C4.20508 7.51953 4.30273 7.6237 4.30273 7.83203V8.41797C4.30273 8.60026 4.20508 8.69141 4.00977 8.69141C3.81445 8.69141 3.7168 8.60026 3.7168 8.41797V7.83203ZM2.07617 6.89453C2.20638 6.76432 2.3431 6.76432 2.48633 6.89453C2.62956 7.02474 2.62305 7.16797 2.4668 7.32422L2.07617 7.71484C2.02409 7.79297 1.95247 7.83203 1.86133 7.83203C1.77018 7.83203 1.69857 7.79297 1.64648 7.71484C1.51628 7.58464 1.51628 7.45443 1.64648 7.32422L2.07617 6.89453ZM1.56836 5.05859C1.75065 5.05859 1.8418 5.15625 1.8418 5.35156C1.8418 5.54688 1.75065 5.64453 1.56836 5.64453H0.982422C0.774089 5.64453 0.669922 5.54688 0.669922 5.35156C0.669922 5.15625 0.774089 5.05859 0.982422 5.05859H1.56836ZM2.4668 3.41797C2.62305 3.54818 2.62305 3.69141 2.4668 3.84766C2.41471 3.89974 2.34961 3.92578 2.27148 3.92578C2.19336 3.92578 2.12826 3.89974 2.07617 3.84766L1.64648 3.41797C1.51628 3.28776 1.51628 3.15104 1.64648 3.00781C1.77669 2.86458 1.91992 2.85807 2.07617 2.98828L2.4668 3.41797ZM20.5137 18.6914C20.696 18.7956 20.7285 18.9323 20.6113 19.1016C20.4941 19.2708 20.3574 19.3034 20.2012 19.1992C19.7585 18.8867 19.2767 18.7565 18.7559 18.8086C18.7298 18.8346 18.7038 18.8477 18.6777 18.8477C18.3652 18.8737 18.0658 18.9909 17.7793 19.1992C17.3105 19.5117 16.7962 19.668 16.2363 19.668C15.6764 19.668 15.1621 19.5117 14.6934 19.1992C13.86 18.6523 13.0397 18.6523 12.2324 19.1992C11.7637 19.5117 11.2493 19.668 10.6895 19.668C10.1296 19.668 9.61523 19.5117 9.14648 19.1992C8.33919 18.6523 7.5319 18.6523 6.72461 19.1992C6.25586 19.5117 5.74154 19.668 5.18164 19.668C4.62174 19.668 4.10742 19.5117 3.63867 19.1992C3.35221 18.9909 3.03971 18.8737 2.70117 18.8477C2.67513 18.8216 2.66211 18.8086 2.66211 18.8086C2.11523 18.7565 1.63346 18.8867 1.2168 19.1992C1.03451 19.3034 0.891276 19.2708 0.787109 19.1016C0.682943 18.9323 0.708984 18.7956 0.865234 18.6914C1.38607 18.3529 1.94596 18.1966 2.54492 18.2227C3.11784 17.4674 4.10742 16.8555 5.51367 16.3867C5.69596 16.3086 5.81966 16.3607 5.88477 16.543C5.94987 16.7253 5.89128 16.8555 5.70898 16.9336C4.56315 17.3242 3.72982 17.793 3.20898 18.3398C3.4694 18.418 3.7168 18.5352 3.95117 18.6914C4.75846 19.2383 5.56576 19.2383 6.37305 18.6914C6.8418 18.3789 7.36263 18.2227 7.93555 18.2227C8.50846 18.2227 9.0293 18.3789 9.49805 18.6914C10.3053 19.2383 11.1126 19.2383 11.9199 18.6914C12.3887 18.3789 12.903 18.2227 13.4629 18.2227C14.0228 18.2227 14.5371 18.3789 15.0059 18.6914C15.8132 19.2383 16.6204 19.2383 17.4277 18.6914C17.6621 18.5352 17.9095 18.418 18.1699 18.3398C17.6491 17.7669 16.8158 17.2982 15.6699 16.9336C14.7324 16.6211 13.6908 16.3997 12.5449 16.2695C11.946 16.2174 11.334 16.1914 10.709 16.1914C9.38086 16.1914 8.13086 16.3216 6.95898 16.582C6.77669 16.6341 6.66602 16.5625 6.62695 16.3672C6.58789 16.1719 6.65951 16.0482 6.8418 15.9961C8.03971 15.7357 9.32878 15.6055 10.709 15.6055C10.735 15.6055 10.7676 15.6055 10.8066 15.6055C10.8457 15.6055 10.8652 15.6055 10.8652 15.6055L13.209 9.70703C12.8184 9.65495 12.4408 9.66797 12.0762 9.74609C11.946 9.77214 11.8288 9.72005 11.7246 9.58984C11.3079 9.01693 10.748 8.58724 10.0449 8.30078C9.31575 8.01432 8.59961 7.9362 7.89648 8.06641C7.76628 8.09245 7.66211 8.05339 7.58398 7.94922C7.50586 7.84505 7.50586 7.74089 7.58398 7.63672C8.20898 6.77734 9.0293 5.99609 10.0449 5.29297C12.1283 3.91276 14.2376 3.65234 16.373 4.51172C17.9095 5.13672 19.0423 6.17839 19.7715 7.63672C19.8757 7.79297 19.8366 7.91667 19.6543 8.00781C19.472 8.09896 19.3418 8.05339 19.2637 7.87109C18.7168 6.77734 17.9095 5.94401 16.8418 5.37109C16.946 5.76172 17.0241 6.15234 17.0762 6.54297C17.1543 7.16797 17.1543 7.83203 17.0762 8.53516C16.998 9.23828 16.8418 9.96745 16.6074 10.7227C16.6074 10.7487 16.6074 10.7617 16.6074 10.7617C17.2585 10.7096 17.9095 10.8138 18.5605 11.0742C19.1335 11.3086 19.6413 11.6341 20.084 12.0508C20.11 10.9831 19.9798 9.98047 19.6934 9.04297C19.6413 8.86068 19.7129 8.73698 19.9082 8.67188C20.1035 8.60677 20.2272 8.66536 20.2793 8.84766C20.6699 10.2279 20.7741 11.543 20.5918 12.793C20.5918 12.9232 20.5267 13.0143 20.3965 13.0664C20.3704 13.0664 20.3444 13.0664 20.3184 13.0664C20.2142 13.0664 20.1361 13.0273 20.084 12.9492C19.6413 12.3503 19.0684 11.9076 18.3652 11.6211C17.6361 11.3346 16.9199 11.2565 16.2168 11.3867C16.0866 11.4128 15.9824 11.3737 15.9043 11.2695C15.6699 10.957 15.3965 10.6836 15.084 10.4492L12.9746 15.7227C14.0163 15.8529 14.9798 16.0742 15.8652 16.3867C17.2975 16.8555 18.2871 17.4674 18.834 18.2227C19.459 18.1966 20.0189 18.3529 20.5137 18.6914ZM12.4668 9.08203C13.196 9.05599 13.8991 9.19922 14.5762 9.51172C14.5762 9.51172 14.5892 9.51172 14.6152 9.51172C15.1621 9.74609 15.6439 10.0846 16.0605 10.5273C16.1387 10.2409 16.2168 9.96745 16.2949 9.70703C16.6335 8.2487 16.6465 6.93359 16.334 5.76172C16.2819 5.55339 16.2168 5.34505 16.1387 5.13672C15.9043 5.24089 15.6699 5.37109 15.4355 5.52734C14.9928 5.78776 14.5762 6.1263 14.1855 6.54297C14.0553 6.69922 13.9186 6.70573 13.7754 6.5625C13.6322 6.41927 13.6257 6.28255 13.7559 6.15234C13.8861 6.02214 14.0293 5.87891 14.1855 5.72266C14.5762 5.35807 14.9928 5.05859 15.4355 4.82422C14.6022 4.58984 13.7689 4.55078 12.9355 4.70703C12.0762 4.86328 11.2298 5.22786 10.3965 5.80078C9.7194 6.24349 9.0944 6.79036 8.52148 7.44141C9.0944 7.44141 9.66732 7.54557 10.2402 7.75391C10.9173 8.01432 11.4772 8.39193 11.9199 8.88672C11.972 8.78255 12.0632 8.61328 12.1934 8.37891C12.4277 7.91016 12.6882 7.48047 12.9746 7.08984C13.1048 6.93359 13.248 6.91406 13.4043 7.03125C13.5605 7.14844 13.5736 7.28516 13.4434 7.44141C13.1048 7.9362 12.7923 8.48307 12.5059 9.08203C12.5059 9.08203 12.4928 9.08203 12.4668 9.08203ZM12.3887 15.6836L14.5762 10.1367C14.5762 10.1367 14.459 10.0846 14.2246 9.98047C14.0944 9.92839 13.9512 9.8763 13.7949 9.82422L11.4902 15.6055C11.6725 15.6315 11.8288 15.6445 11.959 15.6445C12.1152 15.6445 12.2585 15.6576 12.3887 15.6836Z" fill="#007BFF"/>
</g>
<defs>
<clipPath id="clip0_288_750">
<rect width="20" height="21" fill="white" transform="matrix(1 0 0 -1 0.669922 21.3398)"/>
</clipPath>
</defs>
</svg>
