<svg width="21" height="22" viewBox="0 0 21 22" fill="none" xmlns="http://www.w3.org/2000/svg">
<g id="List &#226;&#134;&#146; Item" clip-path="url(#clip0_294_837)">
<path id="Vector" d="M16.1758 12.4961C16.5143 12.6263 16.6836 12.8737 16.6836 13.2383V16.4023C16.6836 16.5326 16.651 16.6628 16.5859 16.793C16.5208 16.9232 16.4232 17.0273 16.293 17.1055C16.1628 17.1836 16.0195 17.2227 15.8633 17.2227H15.6289V17.7695C15.6289 17.9258 15.5378 18.0039 15.3555 18.0039H12.9727C12.7904 18.0039 12.6992 17.9258 12.6992 17.7695V17.2227H4.96484V17.7695C4.96484 17.9258 4.8737 18.0039 4.69141 18.0039H2.30859C2.1263 18.0039 2.03516 17.9258 2.03516 17.7695V17.2227H1.80078C1.64453 17.2227 1.5013 17.1836 1.37109 17.1055C1.24089 17.0273 1.14323 16.9232 1.07812 16.793C1.01302 16.6628 0.980469 16.5326 0.980469 16.4023V13.2383C0.980469 12.8737 1.14974 12.6263 1.48828 12.4961V12.418C1.48828 11.8451 1.76172 11.4414 2.30859 11.207V6.98828V6.05078V4.41016C2.30859 4.25391 2.39323 4.17578 2.5625 4.17578C2.73177 4.17578 2.81641 4.25391 2.81641 4.41016V5.69922C6.87891 4.68359 10.8893 4.68359 14.8477 5.69922V4.41016C14.8477 4.25391 14.9323 4.17578 15.1016 4.17578C15.2708 4.17578 15.3555 4.25391 15.3555 4.41016V6.05078V6.98828V11.207C15.9023 11.4414 16.1758 11.8451 16.1758 12.418V12.4961ZM9.84766 11.0898H13.168C13.168 11.0638 13.168 11.0508 13.168 11.0508C13.2201 10.9987 13.2461 10.9466 13.2461 10.8945V9.44922C13.2461 9.29297 13.168 9.21484 13.0117 9.21484H10.0039C9.84766 9.21484 9.76953 9.29297 9.76953 9.44922V10.8945C9.76953 10.9466 9.78255 10.9987 9.80859 11.0508C9.80859 11.0508 9.82161 11.0638 9.84766 11.0898ZM12.9727 8.66797C13.207 8.66797 13.3958 8.74609 13.5391 8.90234C13.6823 9.05859 13.7539 9.24089 13.7539 9.44922V10.8945C13.7539 10.9466 13.7539 11.0117 13.7539 11.0898H14.8477V7.18359C10.8893 6.11589 6.87891 6.11589 2.81641 7.18359V11.0898H3.91016C3.91016 11.0117 3.91016 10.9466 3.91016 10.8945V9.44922C3.91016 9.24089 3.98177 9.05859 4.125 8.90234C4.26823 8.74609 4.45703 8.66797 4.69141 8.66797H7.93359C8.14193 8.66797 8.32422 8.74609 8.48047 8.90234C8.63672 9.05859 8.71484 9.24089 8.71484 9.44922V10.8945C8.71484 10.9466 8.70182 11.0117 8.67578 11.0898H9.26172C9.23568 11.0117 9.22266 10.9466 9.22266 10.8945V9.44922C9.22266 9.24089 9.30078 9.05859 9.45703 8.90234C9.61328 8.74609 9.79557 8.66797 10.0039 8.66797H12.9727ZM4.49609 11.0898H8.08984C8.08984 11.0638 8.10286 11.0508 8.12891 11.0508C8.15495 10.9987 8.16797 10.9466 8.16797 10.8945V9.44922C8.16797 9.29297 8.08984 9.21484 7.93359 9.21484H4.65234C4.49609 9.21484 4.41797 9.29297 4.41797 9.44922V10.8945C4.41797 10.9466 4.44401 10.9987 4.49609 11.0508C4.49609 11.0508 4.49609 11.0638 4.49609 11.0898ZM14.8477 6.24609C10.8893 5.20443 6.87891 5.20443 2.81641 6.24609V6.63672C6.87891 5.59505 10.8893 5.59505 14.8477 6.63672V6.24609ZM2.81641 11.6367C2.60807 11.6367 2.42578 11.7148 2.26953 11.8711C2.11328 12.0273 2.03516 12.2096 2.03516 12.418H15.6289C15.6289 12.2096 15.5508 12.0273 15.3945 11.8711C15.2383 11.7148 15.056 11.6367 14.8477 11.6367H2.81641ZM4.41797 17.4961V17.2227H2.58203V17.4961H4.41797ZM15.082 17.4961V17.2227H13.2461V17.4961H15.082ZM16.1758 16.4023V13.2383C16.1758 13.056 16.0716 12.9648 15.8633 12.9648H1.80078C1.59245 12.9648 1.48828 13.056 1.48828 13.2383V15.3477H6.33203C6.51432 15.3477 6.60547 15.4323 6.60547 15.6016C6.60547 15.7708 6.51432 15.8555 6.33203 15.8555H1.48828V16.4023C1.48828 16.5846 1.59245 16.6758 1.80078 16.6758H15.8633C16.0716 16.6758 16.1758 16.5846 16.1758 16.4023ZM7.73828 15.3477C7.92057 15.3477 8.01172 15.4323 8.01172 15.6016C8.01172 15.7708 7.92057 15.8555 7.73828 15.8555H7.38672C7.20443 15.8555 7.11328 15.7708 7.11328 15.6016C7.11328 15.4323 7.20443 15.3477 7.38672 15.3477H7.73828ZM12.1914 9.83984L11.957 10.0742C11.931 10.1003 11.9049 10.1263 11.8789 10.1523C11.9049 10.1523 11.931 10.1654 11.957 10.1914L12.1914 10.4258C12.3216 10.556 12.3216 10.6862 12.1914 10.8164C12.1393 10.8685 12.0742 10.8945 11.9961 10.8945C11.918 10.8945 11.8529 10.8685 11.8008 10.8164L11.5664 10.582C11.5404 10.556 11.5273 10.5299 11.5273 10.5039C11.5013 10.5299 11.4753 10.556 11.4492 10.582L11.2148 10.8164C11.1628 10.8685 11.1042 10.8945 11.0391 10.8945C10.974 10.8945 10.9154 10.8685 10.8633 10.8164C10.7331 10.6862 10.7331 10.556 10.8633 10.4258L11.0977 10.1914C11.1237 10.1654 11.1497 10.1523 11.1758 10.1523C11.1497 10.1263 11.1237 10.1003 11.0977 10.0742L10.8633 9.83984C10.7331 9.70964 10.7266 9.58594 10.8438 9.46875C10.9609 9.35156 11.0846 9.34505 11.2148 9.44922L11.4492 9.72266C11.4753 9.72266 11.5013 9.7487 11.5273 9.80078C11.5273 9.7487 11.5404 9.72266 11.5664 9.72266L11.8008 9.44922C11.931 9.34505 12.0612 9.35156 12.1914 9.46875C12.3216 9.58594 12.3216 9.70964 12.1914 9.83984ZM11.5273 10.2695C11.5273 10.2435 11.5404 10.2174 11.5664 10.1914C11.5924 10.1654 11.6185 10.1523 11.6445 10.1523C11.6185 10.1263 11.5924 10.1003 11.5664 10.0742C11.5404 10.0482 11.5273 10.0221 11.5273 9.99609C11.5013 10.0221 11.4818 10.0482 11.4688 10.0742C11.4557 10.1003 11.4232 10.1263 11.3711 10.1523C11.4232 10.1523 11.4557 10.1654 11.4688 10.1914C11.4818 10.2174 11.5013 10.2435 11.5273 10.2695ZM6.83984 9.83984L6.60547 10.0742C6.57943 10.1003 6.55339 10.1263 6.52734 10.1523C6.55339 10.1523 6.57943 10.1654 6.60547 10.1914L6.83984 10.4258C6.97005 10.556 6.97005 10.6862 6.83984 10.8164C6.78776 10.8685 6.72917 10.8945 6.66406 10.8945C6.59896 10.8945 6.54036 10.8685 6.48828 10.8164L6.25391 10.582C6.22786 10.556 6.20182 10.5299 6.17578 10.5039C6.17578 10.5299 6.16276 10.556 6.13672 10.582L5.90234 10.8164C5.85026 10.8685 5.78516 10.8945 5.70703 10.8945C5.62891 10.8945 5.5638 10.8685 5.51172 10.8164C5.38151 10.6862 5.38151 10.556 5.51172 10.4258L5.74609 10.1914C5.77214 10.1654 5.79818 10.1523 5.82422 10.1523C5.79818 10.1263 5.77214 10.1003 5.74609 10.0742L5.51172 9.83984C5.38151 9.70964 5.38151 9.58594 5.51172 9.46875C5.64193 9.35156 5.77214 9.34505 5.90234 9.44922L6.13672 9.72266C6.16276 9.72266 6.17578 9.7487 6.17578 9.80078C6.20182 9.7487 6.22786 9.72266 6.25391 9.72266L6.48828 9.44922C6.61849 9.34505 6.74219 9.35156 6.85938 9.46875C6.97656 9.58594 6.97005 9.70964 6.83984 9.83984ZM6.17578 10.2695C6.20182 10.2435 6.22135 10.2174 6.23438 10.1914C6.2474 10.1654 6.27995 10.1523 6.33203 10.1523C6.27995 10.1263 6.2474 10.1003 6.23438 10.0742C6.22135 10.0482 6.20182 10.0221 6.17578 9.99609C6.17578 10.0221 6.16276 10.0482 6.13672 10.0742C6.11068 10.1003 6.08464 10.1263 6.05859 10.1523C6.08464 10.1523 6.11068 10.1654 6.13672 10.1914C6.16276 10.2174 6.17578 10.2435 6.17578 10.2695Z" fill="#007BFF"/>
</g>
<defs>
<clipPath id="clip0_294_837">
<rect width="20" height="21" fill="white" transform="matrix(1 0 0 -1 0.980469 21.5898)"/>
</clipPath>
</defs>
</svg>
