<svg width="22" height="28" viewBox="0 0 22 28" fill="none" xmlns="http://www.w3.org/2000/svg">
<g id="Icon" clip-path="url(#clip0_602_307)">
<path id="Vector" d="M21.6114 19.1736C21.6114 19.4449 21.5612 19.799 21.4607 20.2361C21.3602 20.6731 21.2547 21.0172 21.1442 21.2684C20.9332 21.7708 20.3204 22.3033 19.3056 22.8659C18.3612 23.3783 17.4268 23.6345 16.5025 23.6345C16.2312 23.6345 15.965 23.6169 15.7038 23.5817C15.4425 23.5466 15.1537 23.4838 14.8372 23.3934C14.5207 23.3029 14.2846 23.2301 14.1289 23.1748C13.9732 23.1196 13.6944 23.0166 13.2925 22.8659C12.8906 22.7152 12.6444 22.6248 12.554 22.5946C11.5694 22.243 10.6903 21.826 9.91667 21.3438C8.6407 20.5501 7.31449 19.465 5.93805 18.0885C4.5616 16.7121 3.47653 15.3859 2.68281 14.1099C2.20055 13.3363 1.7836 12.4572 1.43196 11.4726C1.40182 11.3821 1.31139 11.136 1.16069 10.7341C1.00998 10.3322 0.907 10.0534 0.851741 9.8977C0.796483 9.74197 0.723642 9.50586 0.633218 9.18938C0.542795 8.8729 0.480001 8.58405 0.444837 8.32283C0.409672 8.0616 0.39209 7.79536 0.39209 7.52409C0.39209 6.59976 0.648289 5.66539 1.16069 4.72097C1.72332 3.70622 2.25581 3.09335 2.75816 2.88236C3.00934 2.77184 3.35345 2.66635 3.7905 2.56588C4.22754 2.46541 4.5817 2.41517 4.85297 2.41517C4.99363 2.41517 5.09912 2.43024 5.16945 2.46039C5.3503 2.52067 5.61654 2.90246 5.96819 3.60575C6.07871 3.79664 6.22941 4.06791 6.4203 4.41956C6.6112 4.7712 6.78702 5.09019 6.94777 5.37654C7.10853 5.66288 7.26425 5.93163 7.41496 6.18281C7.4451 6.223 7.53301 6.34859 7.67869 6.55957C7.82438 6.77056 7.93238 6.94889 8.00271 7.09458C8.07304 7.24026 8.1082 7.38343 8.1082 7.52409C8.1082 7.72503 7.96503 7.9762 7.67869 8.27761C7.39235 8.57902 7.0809 8.85532 6.74432 9.10649C6.40775 9.35767 6.09629 9.62391 5.80995 9.90523C5.52361 10.1865 5.38044 10.4176 5.38044 10.5985C5.38044 10.6889 5.40556 10.8019 5.45579 10.9376C5.50603 11.0732 5.54873 11.1762 5.58389 11.2465C5.61905 11.3168 5.68938 11.4374 5.79488 11.6082C5.90037 11.779 5.95814 11.8744 5.96819 11.8945C6.73176 13.271 7.60585 14.4515 8.59046 15.4361C9.57507 16.4207 10.7556 17.2948 12.132 18.0584C12.1521 18.0684 12.2476 18.1262 12.4184 18.2317C12.5892 18.3372 12.7097 18.4075 12.7801 18.4427C12.8504 18.4779 12.9534 18.5206 13.089 18.5708C13.2247 18.621 13.3377 18.6461 13.4281 18.6461C13.609 18.6461 13.84 18.503 14.1213 18.2166C14.4027 17.9303 14.6689 17.6188 14.9201 17.2823C15.1713 16.9457 15.4476 16.6342 15.749 16.3479C16.0504 16.0615 16.3016 15.9184 16.5025 15.9184C16.6432 15.9184 16.7863 15.9535 16.932 16.0239C17.0777 16.0942 17.256 16.2022 17.467 16.3479C17.678 16.4936 17.8036 16.5815 17.8438 16.6116C18.0949 16.7623 18.3637 16.9181 18.65 17.0788C18.9364 17.2396 19.2554 17.4154 19.607 17.6063C19.9587 17.7972 20.2299 17.9479 20.4208 18.0584C21.1241 18.41 21.5059 18.6763 21.5662 18.8571C21.5963 18.9275 21.6114 19.033 21.6114 19.1736Z" fill="white"/>
</g>
<defs>
<clipPath id="clip0_602_307">
<rect width="21.227" height="27.0064" fill="white" transform="matrix(1 0 0 -1 0.388184 27.4925)"/>
</clipPath>
</defs>
</svg>
