<svg width="36" height="38" viewBox="0 0 36 38" fill="none" xmlns="http://www.w3.org/2000/svg">
<g id="1291767_aim_center_precision_target_dartboard_icon 1" clip-path="url(#clip0_330_168)">
<g id="People">
<g id="Icon-14">
<path id="target" fill-rule="evenodd" clip-rule="evenodd" d="M6.00011 6.33333H4.44851L2.04851 3.8H3.00011C3.33191 3.8 3.60011 3.51627 3.60011 3.16667V2.1622L6.00011 4.69553V6.33333ZM18.0001 0C14.0125 0 10.1485 1.40347 7.00631 3.96657L3.42431 0.185567C3.25271 0.00443333 2.99471 -0.0487667 2.77031 0.0481333C2.54591 0.1463 2.40011 0.377467 2.40011 0.633333V2.53333H0.600114C0.357714 2.53333 0.138114 2.68787 0.0457136 2.9241C-0.0472864 3.16097 0.00431355 3.4333 0.175914 3.61443L3.77591 7.41443C3.88811 7.5335 4.04051 7.6 4.20011 7.6H6.35171L17.5759 19.4478C17.6929 19.5713 17.8465 19.6333 18.0001 19.6333C18.1537 19.6333 18.3073 19.5713 18.4243 19.4478C18.6589 19.2001 18.6589 18.7999 18.4243 18.5522L16.7641 16.8004C17.1133 16.5851 17.5231 16.4667 18.0001 16.4667C19.3237 16.4667 20.4001 17.6029 20.4001 19C20.4001 20.3971 19.3237 21.5333 18.0001 21.5333C16.6765 21.5333 15.6001 20.3971 15.6001 19C15.6001 18.6504 15.3319 18.3667 15.0001 18.3667C14.6683 18.3667 14.4001 18.6504 14.4001 19C14.4001 21.0957 16.0147 22.8 18.0001 22.8C19.9855 22.8 21.6001 21.0957 21.6001 19C21.6001 16.9043 19.9855 15.2 18.0001 15.2C17.1931 15.2 16.4773 15.4356 15.8929 15.8802L13.3537 13.1999C14.6521 12.0378 16.2787 11.4 18.0001 11.4C21.9703 11.4 25.2001 14.8092 25.2001 19C25.2001 23.1908 21.9703 26.6 18.0001 26.6C14.0299 26.6 10.8001 23.1908 10.8001 19C10.8001 17.848 11.0461 16.7308 11.5315 15.6807C11.6767 15.3659 11.5531 14.9872 11.2555 14.8333C10.9567 14.68 10.5979 14.8118 10.4533 15.1253C9.88751 16.3501 9.60011 17.6535 9.60011 19C9.60011 23.8893 13.3681 27.8667 18.0001 27.8667C22.6321 27.8667 26.4001 23.8893 26.4001 19C26.4001 14.1107 22.6321 10.1333 18.0001 10.1333C15.9583 10.1333 14.0323 10.9047 12.5053 12.3044L9.96071 9.61843C12.1711 7.50373 14.9983 6.33333 18.0001 6.33333C24.6169 6.33333 30.0001 12.0156 30.0001 19C30.0001 25.9844 24.6169 31.6667 18.0001 31.6667C11.3833 31.6667 6.00011 25.9844 6.00011 19C6.00011 16.5205 6.68471 14.1145 7.97891 12.0416C8.16131 11.7496 8.08511 11.3569 7.80851 11.1644C7.53071 10.9719 7.15931 11.0536 6.97691 11.3449C5.55311 13.6249 4.80011 16.2722 4.80011 19C4.80011 26.683 10.7215 32.9333 18.0001 32.9333C25.2787 32.9333 31.2001 26.683 31.2001 19C31.2001 11.317 25.2787 5.06667 18.0001 5.06667C14.6779 5.06667 11.5507 6.36943 9.11231 8.7229L7.20011 6.70447V5.42767C10.2241 2.74423 14.0467 1.26667 18.0001 1.26667C27.2635 1.26667 34.8001 9.22197 34.8001 19C34.8001 28.778 27.2635 36.7333 18.0001 36.7333C8.73671 36.7333 1.20011 28.778 1.20011 19C1.20011 15.6478 2.09291 12.3823 3.78311 9.557C3.96011 9.26187 3.87611 8.87047 3.59591 8.68363C3.31511 8.49743 2.94551 8.5861 2.76791 8.88123C0.957714 11.9086 0.000113556 15.4077 0.000113556 19C0.000113556 29.4766 8.07491 38 18.0001 38C27.9253 38 36.0001 29.4766 36.0001 19C36.0001 8.5234 27.9253 0 18.0001 0Z" fill="#007BFF"/>
</g>
</g>
</g>
<defs>
<clipPath id="clip0_330_168">
<rect width="36" height="38" fill="white"/>
</clipPath>
</defs>
</svg>
