<svg width="13" height="13" viewBox="0 0 13 13" fill="none" xmlns="http://www.w3.org/2000/svg">
<g clip-path="url(#clip0_299_1038)">
<path d="M12.3132 0.739188C12.4606 0.846331 12.5208 0.989188 12.494 1.16776L10.7798 11.4535C10.7574 11.5829 10.686 11.6834 10.5655 11.7548C10.503 11.7905 10.4338 11.8084 10.3579 11.8084C10.3088 11.8084 10.2552 11.7972 10.1972 11.7749L7.16369 10.5361L5.54315 12.5115C5.4628 12.6142 5.35342 12.6655 5.21503 12.6655C5.15699 12.6655 5.10789 12.6566 5.06771 12.6387C4.98289 12.6075 4.91481 12.555 4.86347 12.4814C4.81213 12.4077 4.78646 12.3262 4.78646 12.237V9.8999L10.5722 2.80838L3.41369 9.00258L0.768601 7.91776C0.603423 7.85526 0.514137 7.73249 0.500744 7.54946C0.491815 7.37088 0.563244 7.23919 0.71503 7.15437L11.8579 0.725795C11.9249 0.685616 11.9963 0.665527 12.0722 0.665527C12.1615 0.665527 12.2418 0.690081 12.3132 0.739188Z" fill="white"/>
</g>
<defs>
<clipPath id="clip0_299_1038">
<rect width="12" height="12" fill="white" transform="matrix(1 0 0 -1 0.500977 12.666)"/>
</clipPath>
</defs>
</svg>
