<svg width="28" height="28" viewBox="0 0 28 28" fill="none" xmlns="http://www.w3.org/2000/svg">
<g id="Icon" clip-path="url(#clip0_602_313)">
<path id="Vector" d="M27.0915 0.651897C27.423 0.893024 27.5587 1.21453 27.4984 1.61641L23.6403 24.7648C23.5901 25.0561 23.4293 25.2822 23.1581 25.4429C23.0174 25.5233 22.8617 25.5635 22.6909 25.5635C22.5804 25.5635 22.4598 25.5384 22.3292 25.4881L15.5022 22.7001L11.8552 27.1459C11.6743 27.377 11.4282 27.4925 11.1167 27.4925C10.9861 27.4925 10.8756 27.4724 10.7852 27.4322C10.5943 27.3619 10.441 27.2439 10.3255 27.0781C10.21 26.9123 10.1522 26.7289 10.1522 26.528V21.2684L23.1731 5.30869L7.06273 19.2489L1.10987 16.8075C0.738127 16.6669 0.537187 16.3906 0.507046 15.9786C0.486952 15.5768 0.647704 15.2804 0.989303 15.0895L26.0667 0.621756C26.2174 0.531332 26.3781 0.48612 26.5489 0.48612C26.7499 0.48612 26.9307 0.54138 27.0915 0.651897Z" fill="white"/>
</g>
<defs>
<clipPath id="clip0_602_313">
<rect width="27.0064" height="27.0064" fill="white" transform="matrix(1 0 0 -1 0.507324 27.4925)"/>
</clipPath>
</defs>
</svg>
