<svg width="20" height="20" viewBox="0 0 20 20" fill="none" xmlns="http://www.w3.org/2000/svg">
<g id="material-symbols-light:flight-takeoff-rounded">
<path id="Vector" d="M16.2499 16.6667H3.74995C3.63162 16.6667 3.53245 16.627 3.45245 16.5475C3.37301 16.4675 3.33328 16.3683 3.33328 16.25C3.33328 16.1317 3.37301 16.0325 3.45245 15.9525C3.53245 15.8731 3.63162 15.8333 3.74995 15.8333H16.2499C16.3683 15.8333 16.4674 15.8731 16.5474 15.9525C16.6269 16.0325 16.6666 16.1317 16.6666 16.25C16.6666 16.3683 16.6269 16.4675 16.5474 16.5475C16.4674 16.627 16.3683 16.6667 16.2499 16.6667ZM4.70495 11.1183L8.94578 9.97084L5.82495 4.70167C5.75662 4.59279 5.74384 4.47806 5.78662 4.35751C5.82939 4.23695 5.91551 4.15778 6.04495 4.12001L6.23912 4.04834C6.31023 4.01723 6.37912 4.01278 6.44578 4.03501C6.51189 4.05723 6.57217 4.0889 6.62662 4.13001L12.1666 9.08001L16.2533 8.00334C16.5699 7.92112 16.8552 7.98029 17.1091 8.18084C17.363 8.3814 17.4899 8.64473 17.4899 8.97084C17.4899 9.1914 17.4283 9.38223 17.3049 9.54334C17.1816 9.70445 17.0169 9.81612 16.8108 9.87834L4.88578 13.1033C4.73745 13.1478 4.59328 13.1406 4.45328 13.0817C4.31328 13.0228 4.2055 12.9261 4.12995 12.7917L2.69828 10.3167C2.64384 10.2283 2.63884 10.1408 2.68328 10.0542C2.72773 9.96806 2.79745 9.91112 2.89245 9.88334L3.06078 9.85251C3.10134 9.83862 3.14578 9.83667 3.19412 9.84667C3.24189 9.85723 3.28467 9.87945 3.32245 9.91334L4.70495 11.1183Z" fill="#485280" fill-opacity="0.6"/>
</g>
</svg>
