<svg width="8" height="13" viewBox="0 0 8 13" fill="none" xmlns="http://www.w3.org/2000/svg">
<g clip-path="url(#clip0_299_1032)">
<path d="M5.14648 6.1635C5.14648 6.1635 5.23019 6.0798 5.3976 5.91239C5.56501 5.74498 5.64872 5.42466 5.64872 4.95145C5.64872 4.47824 5.48131 4.07422 5.14648 3.7394C4.81166 3.40458 4.40765 3.23717 3.93443 3.23717C3.46122 3.23717 3.0572 3.40458 2.72238 3.7394C2.38756 4.07422 2.22015 4.47824 2.22015 4.95145C2.22015 5.42466 2.38756 5.82868 2.72238 6.1635C3.0572 6.49833 3.46122 6.66574 3.93443 6.66574C4.40765 6.66574 4.81166 6.49833 5.14648 6.1635ZM7.363 4.95145C7.363 5.43806 7.28934 5.83761 7.14202 6.15011L4.70452 11.3331C4.63309 11.4805 4.52706 11.5965 4.38644 11.6814C4.24581 11.7662 4.09515 11.8086 3.93443 11.8086C3.77372 11.8086 3.62305 11.7662 3.48242 11.6814C3.3418 11.5965 3.238 11.4805 3.17104 11.3331L0.726842 6.15011C0.57952 5.83761 0.505859 5.43806 0.505859 4.95145C0.505859 4.00502 0.840681 3.19699 1.51032 2.52734C2.17997 1.8577 2.988 1.52288 3.93443 1.52288C4.88086 1.52288 5.6889 1.8577 6.35854 2.52734C7.02818 3.19699 7.363 4.00502 7.363 4.95145Z" fill="white"/>
</g>
<defs>
<clipPath id="clip0_299_1032">
<rect width="6.86667" height="12" fill="white" transform="matrix(1 0 0 -1 0.500977 12.6655)"/>
</clipPath>
</defs>
</svg>
