<svg width="19" height="19" viewBox="0 0 19 19" fill="none" xmlns="http://www.w3.org/2000/svg">
<path fill-rule="evenodd" clip-rule="evenodd" d="M6.22132 1.50605C7.06945 1.467 7.33987 1.45833 9.50031 1.45833C11.6607 1.45833 11.9312 1.46773 12.7786 1.50605C13.626 1.54437 14.2044 1.67958 14.7105 1.87552C15.2405 2.0758 15.7213 2.38888 16.119 2.79378C16.5239 3.19073 16.8363 3.67083 17.0358 4.20154C17.2325 4.70767 17.367 5.2861 17.406 6.13205C17.4451 6.98163 17.4537 7.25204 17.4537 9.41176C17.4537 11.5722 17.4443 11.8426 17.406 12.6907C17.3677 13.5367 17.2325 14.1151 17.0358 14.6213C16.8363 15.152 16.5234 15.6329 16.119 16.0305C15.7213 16.4354 15.2405 16.7477 14.7105 16.9473C14.2044 17.1439 13.626 17.2784 12.78 17.3175C11.9312 17.3565 11.6607 17.3652 9.50031 17.3652C7.33987 17.3652 7.06945 17.3558 6.22132 17.3175C5.37537 17.2791 4.79694 17.1439 4.29081 16.9473C3.76004 16.7477 3.27915 16.4348 2.88161 16.0305C2.47698 15.6333 2.16386 15.1526 1.96407 14.622C1.76813 14.1159 1.63364 13.5374 1.5946 12.6915C1.55555 11.8419 1.54688 11.5715 1.54688 9.41176C1.54688 7.25132 1.55627 6.9809 1.5946 6.1335C1.63292 5.2861 1.76813 4.70767 1.96407 4.20154C2.16415 3.67089 2.47751 3.19023 2.88233 2.79306C3.27931 2.38852 3.75972 2.0754 4.29009 1.87552C4.79621 1.67958 5.37464 1.54509 6.2206 1.50605H6.22132ZM12.7142 2.93767C11.8755 2.89935 11.6239 2.89139 9.50031 2.89139C7.37674 2.89139 7.12512 2.89935 6.2864 2.93767C5.51058 2.9731 5.08977 3.10252 4.80923 3.2117C4.43831 3.35631 4.17295 3.52767 3.89458 3.80604C3.63071 4.06275 3.42763 4.37527 3.30025 4.72068C3.19107 5.00122 3.06164 5.42203 3.02621 6.19785C2.98789 7.03658 2.97994 7.28819 2.97994 9.41176C2.97994 11.5353 2.98789 11.7869 3.02621 12.6257C3.06164 13.4015 3.19107 13.8223 3.30025 14.1028C3.4275 14.4477 3.63067 14.7608 3.89458 15.0175C4.15126 15.2814 4.46434 15.4846 4.80923 15.6118C5.08977 15.721 5.51058 15.8504 6.2864 15.8859C7.12512 15.9242 7.37602 15.9321 9.50031 15.9321C11.6246 15.9321 11.8755 15.9242 12.7142 15.8859C13.49 15.8504 13.9108 15.721 14.1914 15.6118C14.5623 15.4672 14.8277 15.2959 15.106 15.0175C15.3699 14.7608 15.5731 14.4477 15.7004 14.1028C15.8095 13.8223 15.939 13.4015 15.9744 12.6257C16.0127 11.7869 16.0207 11.5353 16.0207 9.41176C16.0207 7.28819 16.0127 7.03658 15.9744 6.19785C15.939 5.42203 15.8095 5.00122 15.7004 4.72068C15.5558 4.34976 15.3844 4.08441 15.106 3.80604C14.8493 3.54218 14.5368 3.33911 14.1914 3.2117C13.9108 3.10252 13.49 2.9731 12.7142 2.93767ZM8.48444 11.8636C9.05178 12.0998 9.68351 12.1316 10.2717 11.9538C10.86 11.7759 11.3682 11.3993 11.7096 10.8884C12.0511 10.3774 12.2045 9.76379 12.1438 9.15226C12.083 8.54074 11.8119 7.96928 11.3766 7.53547C11.0991 7.25817 10.7636 7.04584 10.3942 6.91377C10.0248 6.78169 9.63076 6.73316 9.24037 6.77167C8.84998 6.81017 8.47298 6.93476 8.13651 7.13645C7.80005 7.33814 7.51249 7.61193 7.29453 7.9381C7.07658 8.26427 6.93365 8.6347 6.87605 9.02274C6.81844 9.41077 6.84758 9.80675 6.96138 10.1822C7.07518 10.5576 7.2708 10.9031 7.53416 11.1938C7.79752 11.4846 8.12207 11.7133 8.48444 11.8636ZM6.6096 6.52105C6.98921 6.14144 7.43988 5.84031 7.93586 5.63486C8.43185 5.42942 8.96345 5.32368 9.50031 5.32368C10.0372 5.32368 10.5688 5.42942 11.0647 5.63486C11.5607 5.84031 12.0114 6.14144 12.391 6.52105C12.7706 6.90066 13.0718 7.35133 13.2772 7.84732C13.4826 8.34331 13.5884 8.87491 13.5884 9.41176C13.5884 9.94861 13.4826 10.4802 13.2772 10.9762C13.0718 11.4722 12.7706 11.9229 12.391 12.3025C11.6244 13.0691 10.5845 13.4998 9.50031 13.4998C8.41608 13.4998 7.37626 13.0691 6.6096 12.3025C5.84293 11.5358 5.41222 10.496 5.41222 9.41176C5.41222 8.32753 5.84293 7.28771 6.6096 6.52105ZM14.4951 5.9325C14.5891 5.84376 14.6644 5.73704 14.7165 5.61868C14.7686 5.50031 14.7964 5.3727 14.7983 5.24339C14.8002 5.11408 14.7761 4.98571 14.7275 4.86587C14.6789 4.74604 14.6067 4.63718 14.5153 4.54573C14.4238 4.45429 14.315 4.38212 14.1951 4.33351C14.0753 4.28489 13.9469 4.26081 13.8176 4.2627C13.6883 4.26458 13.5607 4.29239 13.4423 4.34448C13.324 4.39657 13.2173 4.47188 13.1285 4.56595C12.9559 4.7489 12.8614 4.99191 12.8651 5.24339C12.8688 5.49487 12.9703 5.73502 13.1482 5.91286C13.326 6.0907 13.5661 6.19223 13.8176 6.1959C14.0691 6.19956 14.3121 6.10508 14.4951 5.9325Z" fill="white"/>
</svg>
