<svg width="19" height="19" viewBox="0 0 19 19" fill="none" xmlns="http://www.w3.org/2000/svg">
<g id="akar-icons:instagram-fill">
<g id="Group">
<path id="Vector" fill-rule="evenodd" clip-rule="evenodd" d="M6.22035 1.50622C7.06847 1.46717 7.33889 1.4585 9.49933 1.4585C11.6598 1.4585 11.9302 1.4679 12.7776 1.50622C13.625 1.54454 14.2034 1.67975 14.7095 1.87569C15.2395 2.07597 15.7204 2.38905 16.118 2.79395C16.5229 3.1909 16.8353 3.671 17.0348 4.20171C17.2315 4.70783 17.366 5.28627 17.405 6.13222C17.4441 6.98179 17.4528 7.25221 17.4528 9.41193C17.4528 11.5724 17.4434 11.8428 17.405 12.6909C17.3667 13.5369 17.2315 14.1153 17.0348 14.6214C16.8353 15.1522 16.5224 15.6331 16.118 16.0306C15.7204 16.4355 15.2395 16.7479 14.7095 16.9474C14.2034 17.1441 13.625 17.2786 12.779 17.3176C11.9302 17.3567 11.6598 17.3654 9.49933 17.3654C7.33889 17.3654 7.06847 17.356 6.22035 17.3176C5.37439 17.2793 4.79596 17.1441 4.28983 16.9474C3.75906 16.7479 3.27817 16.435 2.88063 16.0306C2.476 15.6334 2.16288 15.1528 1.96309 14.6221C1.76715 14.116 1.63266 13.5376 1.59362 12.6916C1.55457 11.8421 1.5459 11.5716 1.5459 9.41193C1.5459 7.25149 1.5553 6.98107 1.59362 6.13367C1.63194 5.28627 1.76715 4.70783 1.96309 4.20171C2.16317 3.67106 2.47654 3.1904 2.88135 2.79323C3.27833 2.38869 3.75874 2.07557 4.28911 1.87569C4.79524 1.67975 5.37367 1.54526 6.21962 1.50622H6.22035ZM12.7132 2.93783C11.8745 2.89951 11.6229 2.89156 9.49933 2.89156C7.37576 2.89156 7.12415 2.89951 6.28542 2.93783C5.5096 2.97326 5.08879 3.10269 4.80825 3.21187C4.43733 3.35647 4.17198 3.52783 3.89361 3.8062C3.62973 4.06292 3.42665 4.37544 3.29927 4.72085C3.19009 5.00139 3.06067 5.4222 3.02524 6.19802C2.98692 7.03674 2.97896 7.28836 2.97896 9.41193C2.97896 11.5355 2.98692 11.7871 3.02524 12.6258C3.06067 13.4017 3.19009 13.8225 3.29927 14.103C3.42652 14.4479 3.6297 14.761 3.89361 15.0177C4.15029 15.2816 4.46336 15.4847 4.80825 15.612C5.08879 15.7212 5.5096 15.8506 6.28542 15.886C7.12415 15.9243 7.37504 15.9323 9.49933 15.9323C11.6236 15.9323 11.8745 15.9243 12.7132 15.886C13.4891 15.8506 13.9099 15.7212 14.1904 15.612C14.5613 15.4674 14.8267 15.296 15.1051 15.0177C15.369 14.761 15.5721 14.4479 15.6994 14.103C15.8086 13.8225 15.938 13.4017 15.9734 12.6258C16.0117 11.7871 16.0197 11.5355 16.0197 9.41193C16.0197 7.28836 16.0117 7.03674 15.9734 6.19802C15.938 5.4222 15.8086 5.00139 15.6994 4.72085C15.5548 4.34993 15.3834 4.08457 15.1051 3.8062C14.8483 3.54235 14.5358 3.33927 14.1904 3.21187C13.9099 3.10269 13.4891 2.97326 12.7132 2.93783ZM8.48346 11.8638C9.0508 12.0999 9.68253 12.1318 10.2708 11.9539C10.859 11.7761 11.3672 11.3995 11.7087 10.8885C12.0501 10.3776 12.2035 9.76395 12.1428 9.15243C12.0821 8.54091 11.8109 7.96944 11.3756 7.53564C11.0981 7.25834 10.7626 7.04601 10.3932 6.91393C10.0239 6.78186 9.62979 6.73333 9.23939 6.77183C8.849 6.81034 8.472 6.93492 8.13554 7.13662C7.79907 7.33831 7.51151 7.6121 7.29356 7.93827C7.0756 8.26443 6.93268 8.63487 6.87507 9.0229C6.81746 9.41094 6.84661 9.80692 6.96041 10.1823C7.0742 10.5578 7.26982 10.9033 7.53318 11.194C7.79654 11.4848 8.12109 11.7135 8.48346 11.8638ZM6.60862 6.52122C6.98823 6.1416 7.4389 5.84048 7.93489 5.63503C8.43088 5.42959 8.96248 5.32384 9.49933 5.32384C10.0362 5.32384 10.5678 5.42959 11.0638 5.63503C11.5598 5.84048 12.0104 6.1416 12.39 6.52122C12.7697 6.90083 13.0708 7.3515 13.2762 7.84749C13.4817 8.34347 13.5874 8.87507 13.5874 9.41193C13.5874 9.94878 13.4817 10.4804 13.2762 10.9764C13.0708 11.4724 12.7697 11.923 12.39 12.3026C11.6234 13.0693 10.5836 13.5 9.49933 13.5C8.4151 13.5 7.37528 13.0693 6.60862 12.3026C5.84195 11.536 5.41125 10.4962 5.41125 9.41193C5.41125 8.3277 5.84195 7.28788 6.60862 6.52122ZM14.4941 5.93266C14.5882 5.84392 14.6635 5.73721 14.7156 5.61884C14.7676 5.50048 14.7955 5.37286 14.7973 5.24356C14.7992 5.11425 14.7751 4.98588 14.7265 4.86604C14.6779 4.74621 14.6057 4.63735 14.5143 4.5459C14.4229 4.45446 14.314 4.38229 14.1942 4.33367C14.0743 4.28506 13.946 4.26098 13.8166 4.26286C13.6873 4.26475 13.5597 4.29256 13.4414 4.34465C13.323 4.39674 13.2163 4.47205 13.1275 4.56612C12.955 4.74907 12.8605 4.99208 12.8641 5.24356C12.8678 5.49504 12.9693 5.73519 13.1472 5.91303C13.325 6.09087 13.5652 6.1924 13.8166 6.19607C14.0681 6.19973 14.3111 6.10524 14.4941 5.93266Z" fill="white"/>
</g>
</g>
</svg>
