<svg width="38" height="38" viewBox="0 0 38 38" fill="none" xmlns="http://www.w3.org/2000/svg">
<g id="7097366_conservation_sustainable_energy_light_green_icon 1">
<path id="Vector" d="M19.0003 9.19422C16.9213 9.19148 14.8984 9.86869 13.2401 11.1226C11.5818 12.3765 10.379 14.1383 9.81517 16.1394C9.25133 18.1405 9.35736 20.2711 10.1171 22.2063C10.8768 24.1415 12.2485 25.7752 14.0231 26.8583V30.7867C14.0231 30.9028 14.0693 31.0142 14.1514 31.0963C14.2335 31.1784 14.3449 31.2246 14.461 31.2246H23.5395C23.6556 31.2246 23.767 31.1784 23.8491 31.0963C23.9312 31.0142 23.9774 30.9028 23.9774 30.7867V26.8546C25.7502 25.7708 27.1202 24.1372 27.8787 22.2027C28.6373 20.2683 28.7428 18.1389 28.1791 16.1389C27.6155 14.1389 26.4136 12.378 24.7566 11.1243C23.0995 9.87057 21.0781 9.19281 19.0003 9.19422ZM22.7965 19.0653C22.7598 19.021 22.7147 18.9844 22.6638 18.9576C22.6129 18.9308 22.5572 18.9143 22.4999 18.909C22.4426 18.9038 22.3848 18.9099 22.3299 18.9271C22.275 18.9442 22.2239 18.972 22.1798 19.0089C21.1887 19.8589 20.2715 20.7915 19.4381 21.7966V21.4047C19.4381 19.5129 20.4898 18.3298 21.3715 17.6715C21.685 17.4254 22.0708 17.2895 22.4692 17.2848C22.9253 17.2919 23.3635 17.4632 23.7035 17.7672C24.2186 18.2229 24.6268 19.0935 24.0805 20.0509C23.129 21.7179 21.6692 22.6486 19.7328 22.8364C21.045 21.1056 22.7216 19.6969 22.7409 19.6813C22.8293 19.6071 22.8848 19.5009 22.8953 19.3859C22.9057 19.2709 22.8702 19.1565 22.7965 19.0675V19.0653ZM18.5661 21.7966C17.733 20.7914 16.8161 19.8588 15.8252 19.0089C15.7355 18.9391 15.6223 18.9069 15.5093 18.9191C15.3963 18.9312 15.2925 18.9868 15.2198 19.0741C15.1471 19.1614 15.1111 19.2735 15.1195 19.3868C15.1279 19.5001 15.18 19.6057 15.2648 19.6813C15.2834 19.6969 16.9585 21.1034 18.2714 22.8364C16.3358 22.6516 14.8752 21.7179 13.9237 20.0509C13.3774 19.0935 13.7856 18.2229 14.3007 17.7672C14.6407 17.4632 15.0789 17.2919 15.535 17.2848C15.9335 17.2895 16.3193 17.4254 16.6327 17.6715C17.5144 18.3298 18.5624 19.5129 18.5624 21.4047L18.5661 21.7966ZM23.3242 26.2245C23.2577 26.2629 23.2025 26.3182 23.1641 26.3848C23.1256 26.4514 23.1054 26.5269 23.1053 26.6037V30.3428H19.4381V23.7374C21.8302 23.6171 23.6924 22.4994 24.8398 20.4866C25.5953 19.1648 25.104 17.8407 24.2839 17.1134C23.4638 16.386 22.0729 16.058 20.8476 16.9723C20 17.6062 19.3788 18.3736 19.0003 19.2449C18.6217 18.3736 18.0005 17.6062 17.153 16.9723C15.9231 16.058 14.5442 16.3838 13.7166 17.1134C12.8891 17.8429 12.4052 19.1648 13.1607 20.4866C14.3081 22.4994 16.1703 23.6171 18.5624 23.7374V30.3428H14.8989V26.6059C14.8986 26.5288 14.8778 26.4531 14.8387 26.3866C14.7996 26.3201 14.7435 26.2652 14.6763 26.2274C13.0229 25.2759 11.7298 23.8051 10.998 22.0434C10.2661 20.2816 10.1363 18.3276 10.6288 16.4846C11.1213 14.6416 12.2084 13.0127 13.7215 11.8508C15.2345 10.689 17.0889 10.0592 18.9965 10.0592C20.9042 10.0592 22.7585 10.689 24.2716 11.8508C25.7847 13.0127 26.8718 14.6416 27.3643 16.4846C27.8568 18.3276 27.727 20.2816 26.9951 22.0434C26.2633 23.8051 24.9702 25.2759 23.3168 26.2274L23.3242 26.2245Z" fill="#007BFF"/>
<path id="Vector_2" d="M23.5392 32.8789H14.4608C14.4018 32.8765 14.343 32.886 14.2878 32.9069C14.2326 32.9278 14.1822 32.9596 14.1396 33.0005C14.097 33.0413 14.0631 33.0904 14.04 33.1447C14.0168 33.199 14.0049 33.2574 14.0049 33.3164C14.0049 33.3754 14.0168 33.4339 14.04 33.4882C14.0631 33.5424 14.097 33.5915 14.1396 33.6324C14.1822 33.6732 14.2326 33.7051 14.2878 33.726C14.343 33.7469 14.4018 33.7564 14.4608 33.7539H23.5392C23.5982 33.7564 23.6571 33.7469 23.7123 33.726C23.7675 33.7051 23.8179 33.6732 23.8605 33.6324C23.903 33.5915 23.9369 33.5424 23.9601 33.4882C23.9832 33.4339 23.9951 33.3754 23.9951 33.3164C23.9951 33.2574 23.9832 33.199 23.9601 33.1447C23.9369 33.0904 23.903 33.0413 23.8605 33.0005C23.8179 32.9596 23.7675 32.9278 23.7123 32.9069C23.6571 32.886 23.5982 32.8765 23.5392 32.8789Z" fill="#007BFF"/>
<path id="Vector_3" d="M23.5392 35.412H14.4608C14.4018 35.4096 14.343 35.4191 14.2878 35.44C14.2326 35.4609 14.1822 35.4927 14.1396 35.5336C14.097 35.5744 14.0631 35.6235 14.04 35.6778C14.0168 35.7321 14.0049 35.7905 14.0049 35.8495C14.0049 35.9085 14.0168 35.9669 14.04 36.0212C14.0631 36.0755 14.097 36.1246 14.1396 36.1655C14.1822 36.2063 14.2326 36.2382 14.2878 36.2591C14.343 36.2799 14.4018 36.2895 14.4608 36.287H23.5392C23.5982 36.2895 23.6571 36.2799 23.7123 36.2591C23.7675 36.2382 23.8179 36.2063 23.8605 36.1655C23.903 36.1246 23.9369 36.0755 23.9601 36.0212C23.9832 35.9669 23.9951 35.9085 23.9951 35.8495C23.9951 35.7905 23.9832 35.7321 23.9601 35.6778C23.9369 35.6235 23.903 35.5744 23.8605 35.5336C23.8179 35.4927 23.7675 35.4609 23.7123 35.44C23.6571 35.4191 23.5982 35.4096 23.5392 35.412Z" fill="#007BFF"/>
<path id="Vector_4" d="M28.1891 9.81988C28.3054 9.81968 28.4169 9.77353 28.4994 9.69149L30.9404 7.24895C31.0182 7.16586 31.0606 7.05574 31.0586 6.94192C31.0566 6.8281 31.0104 6.71953 30.9297 6.63923C30.849 6.55893 30.7402 6.51321 30.6264 6.51175C30.5126 6.5103 30.4027 6.55323 30.3199 6.63145L27.8789 9.07399C27.8194 9.13552 27.7793 9.21313 27.7634 9.29723C27.7476 9.38133 27.7567 9.46823 27.7897 9.54719C27.8227 9.62614 27.8782 9.6937 27.9491 9.74151C28.0201 9.78931 28.1036 9.81527 28.1891 9.81617V9.81988Z" fill="#007BFF"/>
<path id="Vector_5" d="M35.4652 18.1094H32.0126C31.9536 18.1069 31.8947 18.1165 31.8395 18.1374C31.7843 18.1582 31.7339 18.1901 31.6913 18.231C31.6487 18.2718 31.6149 18.3209 31.5917 18.3752C31.5686 18.4295 31.5566 18.4879 31.5566 18.5469C31.5566 18.6059 31.5686 18.6643 31.5917 18.7186C31.6149 18.7729 31.6487 18.822 31.6913 18.8628C31.7339 18.9037 31.7843 18.9355 31.8395 18.9564C31.8947 18.9773 31.9536 18.9868 32.0126 18.9844H35.4652C35.5242 18.9868 35.583 18.9773 35.6382 18.9564C35.6934 18.9355 35.7438 18.9037 35.7864 18.8628C35.829 18.822 35.8629 18.7729 35.886 18.7186C35.9092 18.6643 35.9211 18.6059 35.9211 18.5469C35.9211 18.4879 35.9092 18.4295 35.886 18.3752C35.8629 18.3209 35.829 18.2718 35.7864 18.231C35.7438 18.1901 35.6934 18.1582 35.6382 18.1374C35.583 18.1165 35.5242 18.1069 35.4652 18.1094Z" fill="#007BFF"/>
<path id="Vector_6" d="M28.5439 27.4298C28.5032 27.3892 28.4549 27.357 28.4017 27.3351C28.3485 27.3132 28.2916 27.3019 28.234 27.302C28.1765 27.3021 28.1196 27.3136 28.0665 27.3357C28.0134 27.3578 27.9652 27.3901 27.9246 27.4309C27.884 27.4716 27.8518 27.52 27.8299 27.5731C27.808 27.6263 27.7968 27.6833 27.7969 27.7408C27.797 27.7983 27.8084 27.8552 27.8305 27.9083C27.8526 27.9614 27.885 28.0096 27.9257 28.0502L30.3668 30.4898C30.4498 30.5677 30.5598 30.6102 30.6736 30.6084C30.7875 30.6065 30.8961 30.5604 30.9765 30.4798C31.0569 30.3992 31.1027 30.2905 31.1043 30.1767C31.1059 30.0628 31.0631 29.9529 30.985 29.8701L28.5439 27.4298Z" fill="#007BFF"/>
<path id="Vector_7" d="M19.0004 6.04066C19.1164 6.04066 19.2277 5.99463 19.3098 5.91267C19.3919 5.83071 19.4381 5.71952 19.4383 5.60351V2.15234C19.4383 2.03621 19.3921 1.92483 19.31 1.84271C19.2279 1.76059 19.1165 1.71445 19.0004 1.71445C18.8843 1.71445 18.7729 1.76059 18.6908 1.84271C18.6086 1.92483 18.5625 2.03621 18.5625 2.15234V5.60351C18.5627 5.71952 18.6089 5.83071 18.691 5.91267C18.7731 5.99463 18.8844 6.04066 19.0004 6.04066Z" fill="#007BFF"/>
<path id="Vector_8" d="M9.50001 9.69149C9.58272 9.7697 9.69264 9.81263 9.80647 9.81118C9.9203 9.80973 10.0291 9.764 10.1098 9.6837C10.1905 9.6034 10.2367 9.49483 10.2387 9.38101C10.2407 9.2672 10.1983 9.15707 10.1205 9.07399L7.68017 6.63145C7.59745 6.55323 7.48754 6.5103 7.37371 6.51175C7.25988 6.51321 7.15109 6.55893 7.0704 6.63923C6.98972 6.71953 6.94347 6.8281 6.94147 6.94192C6.93947 7.05574 6.98188 7.16586 7.0597 7.24895L9.50001 9.69149Z" fill="#007BFF"/>
<path id="Vector_9" d="M5.98767 18.1146H2.53502C2.47604 18.1121 2.41719 18.1217 2.36199 18.1425C2.30679 18.1634 2.25638 18.1953 2.2138 18.2361C2.17121 18.277 2.13733 18.3261 2.11418 18.3804C2.09103 18.4347 2.0791 18.4931 2.0791 18.5521C2.0791 18.6111 2.09103 18.6695 2.11418 18.7238C2.13733 18.7781 2.17121 18.8272 2.2138 18.868C2.25638 18.9089 2.30679 18.9407 2.36199 18.9616C2.41719 18.9825 2.47604 18.992 2.53502 18.9896H5.98767C6.04664 18.992 6.1055 18.9825 6.1607 18.9616C6.2159 18.9407 6.26631 18.9089 6.30889 18.868C6.35148 18.8272 6.38536 18.7781 6.40851 18.7238C6.43165 18.6695 6.44359 18.6111 6.44359 18.5521C6.44359 18.4931 6.43165 18.4347 6.40851 18.3804C6.38536 18.3261 6.35148 18.277 6.30889 18.2361C6.26631 18.1953 6.2159 18.1634 6.1607 18.1425C6.1055 18.1217 6.04664 18.1121 5.98767 18.1146Z" fill="#007BFF"/>
<path id="Vector_10" d="M9.4574 27.4298L7.01486 29.8701C6.93675 29.9529 6.89396 30.0628 6.89555 30.1767C6.89714 30.2905 6.943 30.3992 7.02339 30.4798C7.10379 30.5604 7.2124 30.6065 7.32622 30.6084C7.44004 30.6102 7.5501 30.5677 7.6331 30.4898L10.0749 28.0502C10.1177 28.0102 10.152 27.9619 10.1758 27.9083C10.1996 27.8547 10.2124 27.7969 10.2134 27.7383C10.2144 27.6797 10.2037 27.6215 10.1818 27.5671C10.1599 27.5127 10.1273 27.4633 10.0859 27.4217C10.0446 27.3802 9.99531 27.3474 9.94103 27.3252C9.88676 27.3031 9.82858 27.292 9.76997 27.2928C9.71135 27.2935 9.65348 27.306 9.59979 27.3296C9.5461 27.3531 9.49767 27.3872 9.4574 27.4298Z" fill="#007BFF"/>
</g>
</svg>
