<svg width="8" height="13" viewBox="0 0 8 13" fill="none" xmlns="http://www.w3.org/2000/svg">
<g id="Icon" clip-path="url(#clip0_288_696)">
<path id="Vector" d="M5.0332 5.95578C5.0332 5.95578 5.12388 5.8651 5.30525 5.68373C5.48661 5.50237 5.57729 5.15537 5.57729 4.64272C5.57729 4.13007 5.39593 3.69238 5.0332 3.32966C4.67048 2.96694 4.23279 2.78557 3.72014 2.78557C3.2075 2.78557 2.76981 2.96694 2.40709 3.32966C2.04436 3.69238 1.863 4.13007 1.863 4.64272C1.863 5.15537 2.04436 5.59305 2.40709 5.95578C2.76981 6.3185 3.2075 6.49986 3.72014 6.49986C4.23279 6.49986 4.67048 6.3185 5.0332 5.95578ZM7.43443 4.64272C7.43443 5.16988 7.35463 5.60273 7.19503 5.94127L4.55441 11.5562C4.47703 11.7158 4.36216 11.8416 4.20982 11.9335C4.05748 12.0253 3.89425 12.0713 3.72014 12.0713C3.54604 12.0713 3.38281 12.0253 3.23047 11.9335C3.07812 11.8416 2.96568 11.7158 2.89314 11.5562L0.245257 5.94127C0.0856585 5.60273 0.00585938 5.16988 0.00585938 4.64272C0.00585938 3.61742 0.368583 2.74205 1.09403 2.0166C1.81948 1.29116 2.69485 0.928432 3.72014 0.928432C4.74544 0.928432 5.62081 1.29116 6.34626 2.0166C7.07171 2.74205 7.43443 3.61742 7.43443 4.64272Z" fill="#999999"/>
</g>
<defs>
<clipPath id="clip0_288_696">
<rect width="7.44" height="13" fill="white" transform="matrix(1 0 0 -1 0 13)"/>
</clipPath>
</defs>
</svg>
