<svg width="21" height="22" viewBox="0 0 21 22" fill="none" xmlns="http://www.w3.org/2000/svg">
<g id="List &#226;&#134;&#146; Item" clip-path="url(#clip0_294_840)">
<path id="Vector" d="M16.808 10.582C16.8601 10.6862 16.8471 10.7904 16.7689 10.8945L16.6127 11.1289C16.6127 11.1549 16.6127 11.168 16.6127 11.168L15.1283 12.8477C15.0502 12.9518 14.933 13.0039 14.7767 13.0039C14.6205 13.0039 14.4903 12.9518 14.3861 12.8477L11.9252 9.91797L10.6752 11.3242C10.571 11.4544 10.4408 11.513 10.2846 11.5C10.1283 11.487 9.9981 11.4284 9.89393 11.3242L9.11268 10.2695C9.03456 10.1654 9.02153 10.0612 9.07362 9.95703L12.3549 3.82422C12.459 3.64193 12.6088 3.55078 12.8041 3.55078C12.9994 3.55078 13.1361 3.64193 13.2142 3.82422L16.808 10.582ZM16.1439 10.8164L16.2221 10.6992L12.7846 4.25391L9.69862 10.0352L10.2846 10.8555L11.5736 9.44922C11.6778 9.34505 11.795 9.29297 11.9252 9.29297C12.0814 9.29297 12.2116 9.34505 12.3158 9.44922L14.7767 12.3789L16.1439 10.8164ZM20.6752 17.8867C20.7533 18.069 20.7468 18.2383 20.6556 18.3945C20.5645 18.5508 20.4148 18.6289 20.2064 18.6289H1.22206C1.01372 18.6289 0.863982 18.5443 0.772837 18.375C0.681691 18.2057 0.67518 18.043 0.753305 17.8867L3.21424 13.3164L5.05018 9.95703L6.10487 7.92578C6.18299 7.79557 6.30018 7.71745 6.45643 7.69141H6.49549H6.53456C6.58664 7.69141 6.6257 7.69141 6.65174 7.69141C6.80799 7.74349 6.91216 7.82161 6.96424 7.92578L8.56581 10.9336L9.07362 9.95703L9.26893 9.56641L12.3549 3.82422C12.459 3.64193 12.6088 3.55078 12.8041 3.55078C12.9994 3.55078 13.1361 3.64193 13.2142 3.82422L17.5502 12.0273C17.6283 12.1836 17.5827 12.3073 17.4135 12.3984C17.2442 12.4896 17.1205 12.457 17.0424 12.3008L16.4955 11.2461L15.1283 12.8477C15.0502 12.9518 14.933 13.0039 14.7767 13.0039C14.6205 13.0039 14.4903 12.9518 14.3861 12.8477L11.9252 9.91797L10.6752 11.3242C10.571 11.4544 10.4408 11.513 10.2846 11.5C10.1283 11.487 9.9981 11.4284 9.89393 11.3242L9.38612 10.6211L8.87831 11.5586C11.1439 15.8294 12.2767 17.9909 12.2767 18.043H20.0502L17.8236 13.8242C17.7455 13.6419 17.7911 13.5052 17.9603 13.4141C18.1296 13.3229 18.2663 13.3685 18.3705 13.5508L20.6752 17.8867ZM9.77674 9.87891L9.69862 10.0352L10.2846 10.8555L11.5736 9.44922C11.6778 9.34505 11.795 9.29297 11.9252 9.29297C12.0814 9.29297 12.2116 9.34505 12.3158 9.44922L14.7767 12.3789L16.183 10.6992L12.7846 4.25391L9.77674 9.87891ZM1.37831 18.043H11.6517L10.2846 15.4258L9.46424 16.168C9.38612 16.2461 9.28195 16.2852 9.15174 16.2852C9.02153 16.2852 8.90435 16.2461 8.80018 16.168L7.97987 15.3477C7.84966 15.1914 7.84966 15.0482 7.97987 14.918C8.11008 14.7878 8.25331 14.7878 8.40956 14.918L9.15174 15.6602L9.97206 14.918L6.53456 8.39453L3.87831 13.3555L4.73768 14.0977L5.71424 13.0039C5.81841 12.8997 5.94211 12.8477 6.08534 12.8477C6.22857 12.8477 6.33924 12.8867 6.41737 12.9648L7.12049 13.668C7.27674 13.7982 7.28325 13.9349 7.14002 14.0781C6.99679 14.2214 6.86008 14.2279 6.72987 14.0977L6.10487 13.4727L5.12831 14.5664C5.02414 14.6706 4.89393 14.7227 4.73768 14.7227C4.63351 14.7227 4.52935 14.6836 4.42518 14.6055L3.56581 13.9023L1.37831 18.043Z" fill="#007BFF"/>
</g>
<defs>
<clipPath id="clip0_294_840">
<rect width="20" height="21" fill="white" transform="matrix(1 0 0 -1 0.699219 21.5898)"/>
</clipPath>
</defs>
</svg>
