<svg width="9" height="8" viewBox="0 0 9 8" fill="none" xmlns="http://www.w3.org/2000/svg">
<path d="M8.21189 4.22673C8.34897 4.27657 8.4362 4.40118 8.4362 4.5258C8.4362 6.08347 7.41437 6.9433 6.77884 7.19253C6.71653 7.21745 6.61684 7.24237 6.49223 7.19253C5.6947 6.88099 4.84733 5.92147 4.84733 4.5258C4.84733 4.40118 4.93456 4.27657 5.05917 4.22673L6.49223 3.66596C6.61684 3.61612 6.72899 3.64104 6.77884 3.66596L8.21189 4.22673ZM6.64176 6.60684C7.06545 6.395 7.75082 5.79685 7.82559 4.71272L6.64176 4.25165V6.60684ZM3.25228 4.02734C2.36752 4.02734 1.65723 3.31705 1.65723 2.43229C1.65723 1.56 2.36752 0.83724 3.25228 0.83724C4.12457 0.83724 4.84733 1.56 4.84733 2.43229C4.84733 3.31705 4.12457 4.02734 3.25228 4.02734ZM4.44857 4.5258C4.44857 5.72209 5.00933 6.64423 5.68224 7.1676C5.60747 7.20499 5.52024 7.21745 5.44548 7.21745H1.05908C0.722626 7.21745 0.460938 6.95576 0.460938 6.6193V6.10839C0.460938 5.18625 1.20862 4.42611 2.13076 4.42611H2.3426C2.61675 4.56318 2.92828 4.62549 3.25228 4.62549C3.57627 4.62549 3.87535 4.56318 4.1495 4.42611H4.36134C4.39872 4.42611 4.42364 4.43857 4.46103 4.43857C4.44857 4.47595 4.44857 4.50087 4.44857 4.5258Z" fill="white"/>
</svg>
