<svg width="10" height="13" viewBox="0 0 10 13" fill="none" xmlns="http://www.w3.org/2000/svg">
<g clip-path="url(#clip0_299_1035)">
<path d="M9.93541 8.96952C9.93541 9.09005 9.91308 9.24742 9.86844 9.44162C9.8238 9.63581 9.77693 9.78871 9.72782 9.90032C9.63407 10.1235 9.36175 10.3601 8.91085 10.6101C8.49121 10.8378 8.07603 10.9517 7.66532 10.9517C7.54478 10.9517 7.42648 10.9438 7.31041 10.9282C7.19434 10.9126 7.06599 10.8847 6.92536 10.8445C6.78474 10.8043 6.67983 10.772 6.61063 10.7474C6.54143 10.7229 6.41755 10.6771 6.23898 10.6101C6.06041 10.5432 5.95103 10.503 5.91085 10.4896C5.47335 10.3334 5.08273 10.1481 4.73898 9.9338C4.17201 9.58112 3.58273 9.09898 2.97112 8.48737C2.35951 7.87577 1.87737 7.28648 1.52469 6.71952C1.31041 6.37577 1.12514 5.98514 0.968889 5.54764C0.955497 5.50746 0.915318 5.39809 0.848354 5.21952C0.78139 5.04095 0.735631 4.91706 0.711077 4.84787C0.686523 4.77867 0.654157 4.67376 0.613979 4.53313C0.5738 4.39251 0.545898 4.26416 0.530273 4.14809C0.514648 4.03202 0.506836 3.91371 0.506836 3.79318C0.506836 3.38246 0.620675 2.96729 0.848354 2.54764C1.09835 2.09675 1.33496 1.82443 1.55818 1.73068C1.66978 1.68157 1.82268 1.6347 2.01688 1.59005C2.21108 1.54541 2.36844 1.52309 2.48898 1.52309C2.55148 1.52309 2.59835 1.52979 2.6296 1.54318C2.70996 1.56996 2.82826 1.73961 2.98451 2.05211C3.03362 2.13693 3.10059 2.25746 3.18541 2.41371C3.27023 2.56996 3.34835 2.71171 3.41978 2.83894C3.49121 2.96617 3.56041 3.08559 3.62737 3.1972C3.64076 3.21505 3.67983 3.27086 3.74456 3.36461C3.80929 3.45836 3.85728 3.5376 3.88853 3.60233C3.91978 3.66706 3.93541 3.73068 3.93541 3.79318C3.93541 3.88246 3.87179 3.99407 3.74456 4.128C3.61733 4.26193 3.47893 4.3847 3.32938 4.4963C3.17983 4.60791 3.04143 4.72621 2.9142 4.85121C2.78697 4.97621 2.72335 5.07889 2.72335 5.15925C2.72335 5.19943 2.73451 5.24965 2.75684 5.30992C2.77916 5.37019 2.79813 5.41595 2.81376 5.4472C2.82938 5.47845 2.86063 5.53202 2.90751 5.60791C2.95438 5.6838 2.98005 5.72621 2.98451 5.73514C3.3238 6.34675 3.71219 6.8713 4.14969 7.3088C4.58719 7.7463 5.11175 8.1347 5.72335 8.47398C5.73228 8.47845 5.77469 8.50412 5.85059 8.55099C5.92648 8.59787 5.98005 8.62912 6.0113 8.64474C6.04255 8.66037 6.08831 8.67934 6.14858 8.70166C6.20884 8.72398 6.25907 8.73514 6.29925 8.73514C6.3796 8.73514 6.48228 8.67153 6.60728 8.54429C6.73228 8.41706 6.85059 8.27867 6.96219 8.12912C7.0738 7.97956 7.19657 7.84117 7.3305 7.71394C7.46442 7.5867 7.57603 7.52309 7.66532 7.52309C7.72782 7.52309 7.79143 7.53871 7.85617 7.56996C7.9209 7.60121 8.00014 7.6492 8.09389 7.71394C8.18764 7.77867 8.24344 7.81773 8.2613 7.83112C8.37291 7.89809 8.49233 7.96729 8.61956 8.03871C8.74679 8.11014 8.88853 8.18827 9.04478 8.27309C9.20103 8.35791 9.32157 8.42487 9.40639 8.47398C9.71889 8.63023 9.88853 8.74854 9.91532 8.82889C9.92871 8.86014 9.93541 8.90702 9.93541 8.96952Z" fill="white"/>
</g>
<defs>
<clipPath id="clip0_299_1035">
<rect width="9.44" height="12" fill="white" transform="matrix(1 0 0 -1 0.500977 12.6655)"/>
</clipPath>
</defs>
</svg>
