<svg width="17" height="17" viewBox="0 0 17 17" fill="none" xmlns="http://www.w3.org/2000/svg">
<g id="Star 2">
<path id="Star 1" d="M8.19285 2.36928C8.36704 1.83316 9.1255 1.83317 9.2997 2.36928L10.4447 5.89314C10.5226 6.13289 10.746 6.29522 10.9981 6.29522H14.7033C15.267 6.29522 15.5014 7.01656 15.0453 7.3479L12.0478 9.52576C11.8438 9.67394 11.7585 9.93659 11.8364 10.1763L12.9813 13.7002C13.1555 14.2363 12.5419 14.6821 12.0859 14.3508L9.08831 12.1729C8.88436 12.0248 8.60819 12.0248 8.40424 12.1729L5.40667 14.3508C4.95062 14.6821 4.33701 14.2363 4.51121 13.7002L5.65618 10.1763C5.73408 9.93659 5.64874 9.67394 5.44479 9.52576L2.44722 7.3479C1.99117 7.01656 2.22555 6.29522 2.78925 6.29522H6.49445C6.74655 6.29522 6.96998 6.13289 7.04788 5.89314L8.19285 2.36928Z" fill="#3E66DF"/>
</g>
</svg>
