<svg width="16" height="16" viewBox="0 0 16 16" fill="none" xmlns="http://www.w3.org/2000/svg">
<g id="Icon" clip-path="url(#clip0_383_159)">
<path id="Vector" d="M13.8458 2.42873V1.80566C13.8458 1.36951 13.69 0.995672 13.3785 0.684138C13.0669 0.372604 12.6931 0.216838 12.2569 0.216838H7.84874C7.63067 0.216838 7.42558 0.255779 7.23346 0.333663C7.04135 0.411547 6.8726 0.528372 6.72722 0.684138L0.480972 6.93039C0.325206 7.07577 0.20838 7.24452 0.130497 7.43663C0.0526136 7.62874 0.0136719 7.83383 0.0136719 8.05191C0.0136719 8.2596 0.0526136 8.4595 0.130497 8.65161C0.20838 8.84372 0.325206 9.01766 0.480972 9.17343L1.11962 9.7965C1.09885 9.8588 1.08587 9.92111 1.08067 9.98342C1.07548 10.0457 1.07289 10.1028 1.07289 10.1548C1.07289 10.3728 1.11183 10.5779 1.18971 10.77C1.26759 10.9622 1.38442 11.1309 1.54019 11.2763L5.94839 15.7001C6.10415 15.8558 6.28069 15.9726 6.47799 16.0505C6.6753 16.1284 6.8726 16.1674 7.06991 16.1674C7.2776 16.1674 7.4775 16.1284 7.66961 16.0505C7.86172 15.9726 8.03566 15.8558 8.19143 15.7001L14.4377 9.45381C14.5831 9.30843 14.6973 9.13708 14.7804 8.93978C14.8634 8.74247 14.905 8.53998 14.905 8.33229V3.92409C14.905 3.57102 14.8063 3.25948 14.609 2.98949C14.4117 2.71949 14.1573 2.53257 13.8458 2.42873ZM1.22865 8.42575C1.17673 8.37383 1.13779 8.31412 1.11183 8.24662C1.08587 8.17912 1.07289 8.11421 1.07289 8.05191C1.07289 7.97922 1.08587 7.90912 1.11183 7.84162C1.13779 7.77412 1.17673 7.71961 1.22865 7.67807L7.4749 1.43182C7.51644 1.3799 7.57096 1.34095 7.63846 1.31499C7.70596 1.28903 7.77605 1.27605 7.84874 1.27605H12.2569C12.4023 1.27605 12.5269 1.32797 12.6308 1.43182C12.7346 1.53566 12.7866 1.66028 12.7866 1.80566V2.33527H8.90796C8.68988 2.33527 8.48479 2.37421 8.29268 2.45209C8.10057 2.52997 7.93182 2.6468 7.78644 2.80257L1.69595 8.87747L1.22865 8.42575ZM13.69 8.70613L7.44375 14.9524C7.3399 15.0562 7.21529 15.1081 7.06991 15.1081C6.92453 15.1081 6.79991 15.0562 6.69607 14.9524L2.28787 10.5442C2.23594 10.4923 2.197 10.4325 2.17104 10.365C2.14508 10.2975 2.1321 10.2326 2.1321 10.1703C2.1321 10.0976 2.14508 10.0276 2.17104 9.96005C2.197 9.89255 2.23594 9.83803 2.28787 9.7965L8.53412 3.55025C8.57565 3.49833 8.63017 3.45938 8.69767 3.43342C8.76517 3.40746 8.83527 3.39448 8.90796 3.39448H13.3162C13.4615 3.39448 13.5862 3.4464 13.69 3.55025C13.7938 3.65409 13.8458 3.77871 13.8458 3.92409V8.33229C13.8458 8.40498 13.8328 8.47248 13.8068 8.53479C13.7809 8.59709 13.7419 8.65421 13.69 8.70613ZM11.1977 4.4537C10.7616 4.4537 10.3877 4.60687 10.0762 4.91321C9.76467 5.21955 9.60891 5.59598 9.60891 6.04252C9.60891 6.47866 9.76467 6.8525 10.0762 7.16404C10.3877 7.47557 10.7616 7.63134 11.1977 7.63134C11.6339 7.63134 12.0077 7.47557 12.3193 7.16404C12.6308 6.8525 12.7866 6.47866 12.7866 6.04252C12.7866 5.59598 12.6308 5.21955 12.3193 4.91321C12.0077 4.60687 11.6339 4.4537 11.1977 4.4537ZM11.1977 6.55655C11.0523 6.55655 10.9277 6.50722 10.8239 6.40857C10.72 6.30992 10.6681 6.18271 10.6681 6.02694C10.6681 5.88156 10.72 5.75694 10.8239 5.6531C10.9277 5.54925 11.0523 5.49733 11.1977 5.49733C11.3431 5.49733 11.4677 5.54925 11.5716 5.6531C11.6754 5.75694 11.7273 5.88156 11.7273 6.02694C11.7273 6.17232 11.6754 6.29694 11.5716 6.40078C11.4677 6.50462 11.3431 6.55655 11.1977 6.55655Z" fill="white"/>
</g>
<defs>
<clipPath id="clip0_383_159">
<rect width="15.9505" height="15.9505" fill="white" transform="matrix(1 0 0 -1 0.0136719 15.9648)"/>
</clipPath>
</defs>
</svg>
