<svg width="7" height="7" viewBox="0 0 7 7" fill="none" xmlns="http://www.w3.org/2000/svg">
<g id="List &#226;&#134;&#146; Item" clip-path="url(#clip0_383_166)">
<path id="Vector" d="M1.45924 1.71501C2.61937 0.554504 4.50097 0.554504 5.6616 1.71501C6.8221 2.87513 6.8221 4.75674 5.6616 5.91736C4.50147 7.07786 2.61974 7.07749 1.45924 5.91736C0.298742 4.75723 0.298742 2.87551 1.45924 1.71501ZM5.13899 4.00181C5.24881 4.00181 5.33799 3.91263 5.33799 3.80281C5.33799 3.69299 5.24881 3.60382 5.13899 3.60382H3.74604V1.81288C3.74604 1.70307 3.65687 1.61389 3.54705 1.61389C3.43723 1.61389 3.34806 1.70307 3.34806 1.81288V3.80443C3.34806 3.91425 3.43723 4.00342 3.54705 4.00342C3.54979 4.00342 3.55228 4.00181 3.55501 4.00181H5.13899Z" fill="white"/>
</g>
<defs>
<clipPath id="clip0_383_166">
<rect width="6.38021" height="6.38021" fill="white" transform="matrix(1 0 0 -1 0.583008 6.80011)"/>
</clipPath>
</defs>
</svg>
