<svg width="22" height="21" viewBox="0 0 22 21" fill="none" xmlns="http://www.w3.org/2000/svg">
<path d="M19.4832 5.17131C18.8609 5.43974 18.1837 5.63292 17.4862 5.70816C18.2104 5.27794 18.7527 4.59825 19.0114 3.79663C18.3318 4.20088 17.5874 4.48434 16.8111 4.63445C16.4866 4.28758 16.0942 4.01125 15.6583 3.82267C15.2223 3.6341 14.7522 3.53732 14.2773 3.53837C12.3556 3.53837 10.8101 5.09607 10.8101 7.0076C10.8101 7.27603 10.8426 7.54446 10.8955 7.80272C8.01802 7.65224 5.45168 6.27756 3.74554 4.17284C3.43466 4.70383 3.27175 5.30842 3.27375 5.92372C3.27375 7.12758 3.88585 8.18909 4.81925 8.81339C4.26918 8.79173 3.732 8.64054 3.25138 8.37211V8.41481C3.25138 10.1006 4.44304 11.4977 6.03125 11.819C5.73304 11.8964 5.42628 11.9361 5.11818 11.9369C4.89246 11.9369 4.67894 11.9146 4.46338 11.884C4.90263 13.2587 6.18173 14.2572 7.70485 14.2897C6.5132 15.2231 5.02057 15.7722 3.39983 15.7722C3.10904 15.7722 2.84061 15.762 2.56201 15.7295C4.09937 16.7158 5.92347 17.2851 7.88787 17.2851C14.2651 17.2851 17.7547 12.002 17.7547 7.41634C17.7547 7.26586 17.7547 7.11538 17.7445 6.9649C18.4196 6.47074 19.0114 5.85865 19.4832 5.17131Z" fill="white"/>
</svg>
