<svg width="22" height="21" viewBox="0 0 22 21" fill="none" xmlns="http://www.w3.org/2000/svg">
<g id="ant-design:twitter-outlined">
<path id="Vector" d="M19.4827 5.17152C18.8604 5.43995 18.1832 5.63314 17.4857 5.70838C18.2099 5.27815 18.7522 4.59847 19.0109 3.79684C18.3314 4.20109 17.5869 4.48456 16.8106 4.63466C16.4861 4.2878 16.0937 4.01146 15.6578 3.82289C15.2219 3.63431 14.7518 3.53753 14.2768 3.53858C12.3551 3.53858 10.8096 5.09628 10.8096 7.00781C10.8096 7.27624 10.8421 7.54467 10.895 7.80293C8.01753 7.65245 5.4512 6.27777 3.74505 4.17305C3.43417 4.70404 3.27126 5.30863 3.27327 5.92393C3.27327 7.12779 3.88536 8.18931 4.81876 8.8136C4.2687 8.79194 3.73151 8.64075 3.2509 8.37232V8.41503C3.2509 10.1008 4.44256 11.4979 6.03076 11.8192C5.73255 11.8966 5.42579 11.9363 5.11769 11.9371C4.89197 11.9371 4.67845 11.9148 4.46289 11.8843C4.90214 13.2589 6.18124 14.2574 7.70437 14.2899C6.51271 15.2233 5.02008 15.7724 3.39935 15.7724C3.10855 15.7724 2.84012 15.7622 2.56152 15.7297C4.09889 16.716 5.92298 17.2854 7.88739 17.2854C14.2646 17.2854 17.7542 12.0022 17.7542 7.41656C17.7542 7.26608 17.7542 7.11559 17.744 6.96511C18.4191 6.47096 19.0109 5.85886 19.4827 5.17152Z" fill="white"/>
</g>
</svg>
