<svg width="24" height="28" viewBox="0 0 24 28" fill="none" xmlns="http://www.w3.org/2000/svg">
<g id="Icon" clip-path="url(#clip0_602_319)">
<path id="Vector" d="M6.20149 3.96743C6.20149 3.96743 6.64482 3.70872 7.53147 3.19129C8.41812 2.67387 9.91136 2.41516 12.0112 2.41516C14.111 2.41516 16.0476 2.93258 17.8209 3.96743C19.5942 5.00227 20.9982 6.40634 22.0331 8.17964C23.0679 9.95294 23.5854 11.8895 23.5854 13.9893C23.5854 16.0892 23.0679 18.0257 22.0331 19.799C20.9982 21.5723 19.5942 22.9764 17.8209 24.0112C16.0476 25.0461 14.111 25.5635 12.0112 25.5635C9.91136 25.5635 7.97479 25.0461 6.20149 24.0112C4.42819 22.9764 3.02412 21.5723 1.98928 19.799C0.954434 18.0257 0.437012 16.0892 0.437012 13.9893C0.437012 11.8895 0.954434 9.95294 1.98928 8.17964C3.02412 6.40634 4.42819 5.00227 6.20149 3.96743ZM16.1405 10.2669C16.1204 10.277 16.0727 10.3247 15.9973 10.4101C15.922 10.4955 15.8542 10.5432 15.7939 10.5533C15.814 10.5533 15.8366 10.5281 15.8617 10.4779C15.8868 10.4277 15.9119 10.3724 15.9371 10.3121C15.9622 10.2518 15.9798 10.2167 15.9898 10.2066C16.0501 10.1363 16.1606 10.0609 16.3214 9.98057C16.462 9.92029 16.7232 9.86001 17.105 9.79972C17.4466 9.71935 17.7028 9.77461 17.8736 9.9655C17.8535 9.94541 17.9013 9.8801 18.0168 9.76958C18.1323 9.65907 18.2052 9.59878 18.2353 9.58874C18.2655 9.56864 18.3408 9.54604 18.4614 9.52092C18.5819 9.4958 18.6573 9.45813 18.6874 9.40789L18.7176 9.07634C18.597 9.08639 18.5091 9.05122 18.4538 8.97084C18.3986 8.89047 18.3659 8.78498 18.3559 8.65436C18.3559 8.67446 18.3257 8.71465 18.2655 8.77493C18.2655 8.7046 18.2429 8.66441 18.1976 8.65436C18.1524 8.64432 18.0947 8.64934 18.0243 8.66943C17.954 8.68953 17.9088 8.69455 17.8887 8.6845C17.7882 8.65436 17.7129 8.61669 17.6626 8.57148C17.6124 8.52626 17.5722 8.44338 17.5421 8.32281C17.5119 8.20225 17.4918 8.12689 17.4818 8.09675C17.4617 8.04652 17.414 7.99126 17.3386 7.93098C17.2633 7.8707 17.2155 7.82046 17.1954 7.78027C17.1854 7.76018 17.1728 7.73255 17.1578 7.69738C17.1427 7.66222 17.1276 7.62957 17.1126 7.59943C17.0975 7.56928 17.0774 7.54165 17.0523 7.51654C17.0272 7.49142 16.9995 7.47886 16.9694 7.47886C16.9393 7.47886 16.9041 7.50398 16.8639 7.55421C16.8237 7.60445 16.786 7.65468 16.7509 7.70492C16.7157 7.75516 16.6931 7.78027 16.6831 7.78027C16.6529 7.76018 16.6228 7.75264 16.5926 7.75767C16.5625 7.76269 16.5399 7.76771 16.5248 7.77274C16.5097 7.77776 16.4871 7.79283 16.457 7.81795C16.4269 7.84307 16.4017 7.86065 16.3816 7.8707C16.3515 7.89079 16.3088 7.90586 16.2535 7.91591C16.1983 7.92595 16.1556 7.936 16.1254 7.94605C16.2761 7.89581 16.2711 7.84056 16.1104 7.78027C16.0099 7.74008 15.9295 7.72501 15.8692 7.73506C15.9597 7.69487 15.9973 7.63459 15.9823 7.55421C15.9672 7.47384 15.9245 7.40351 15.8542 7.34323H15.9295C15.9195 7.30304 15.8768 7.26034 15.8014 7.21513C15.7261 7.16992 15.6382 7.12722 15.5377 7.08703C15.4372 7.04684 15.3719 7.0167 15.3418 6.9966C15.2614 6.94637 15.0906 6.89865 14.8294 6.85343C14.5682 6.80822 14.4024 6.80571 14.332 6.8459C14.2818 6.90618 14.2592 6.95893 14.2642 7.00414C14.2693 7.04935 14.2893 7.11968 14.3245 7.21513C14.3597 7.31057 14.3773 7.37337 14.3773 7.40351C14.3873 7.46379 14.3597 7.5291 14.2944 7.59943C14.2291 7.66975 14.1964 7.73004 14.1964 7.78027C14.1964 7.8506 14.2667 7.92846 14.4074 8.01387C14.5481 8.09927 14.5983 8.20727 14.5581 8.33788C14.528 8.41826 14.4476 8.49863 14.317 8.57901C14.1864 8.65939 14.106 8.71967 14.0758 8.75986C14.0256 8.84023 14.0181 8.93317 14.0532 9.03866C14.0884 9.14416 14.1412 9.22704 14.2115 9.28733C14.2316 9.30742 14.2391 9.32751 14.2341 9.34761C14.2291 9.3677 14.2115 9.39031 14.1813 9.41543C14.1512 9.44054 14.1236 9.46064 14.0985 9.47571C14.0733 9.49078 14.0407 9.50836 14.0005 9.52845L13.9553 9.5586C13.8448 9.60883 13.7418 9.57869 13.6463 9.46817C13.5509 9.35765 13.4831 9.22704 13.4429 9.07634C13.3726 8.82516 13.2922 8.67446 13.2018 8.62422C12.9707 8.54385 12.825 8.54887 12.7647 8.63929C12.7145 8.50868 12.5085 8.37807 12.1468 8.24746C11.8956 8.15704 11.6043 8.13694 11.2727 8.18718C11.333 8.17713 11.333 8.10178 11.2727 7.96112C11.2024 7.81041 11.107 7.75013 10.9864 7.78027C11.0165 7.71999 11.0366 7.63208 11.0467 7.51654C11.0567 7.401 11.0617 7.33318 11.0617 7.31309C11.0919 7.18247 11.1522 7.06693 11.2426 6.96646C11.2526 6.95642 11.2878 6.91372 11.3481 6.83836C11.4084 6.76301 11.4561 6.69519 11.4913 6.63491C11.5264 6.57463 11.5289 6.54449 11.4988 6.54449C11.8504 6.58468 12.1016 6.52942 12.2523 6.37871C12.3025 6.32848 12.3603 6.24308 12.4256 6.12251C12.4909 6.00195 12.5437 5.91655 12.5839 5.86631C12.6743 5.80603 12.7446 5.7784 12.7949 5.78343C12.8451 5.78845 12.9179 5.81608 13.0134 5.86631C13.1088 5.91655 13.1817 5.94167 13.2319 5.94167C13.3726 5.95171 13.4504 5.89646 13.4655 5.77589C13.4806 5.65533 13.4429 5.55486 13.3525 5.47448C13.473 5.48453 13.4881 5.39913 13.3977 5.21828C13.3575 5.14795 13.3173 5.10274 13.2771 5.08265C13.1565 5.04246 13.0209 5.06758 12.8702 5.158C12.7898 5.19819 12.7999 5.23837 12.9003 5.27856C12.8903 5.26852 12.8426 5.32126 12.7572 5.4368C12.6718 5.55234 12.5889 5.64025 12.5085 5.70054C12.4281 5.76082 12.3478 5.7357 12.2674 5.62519C12.2573 5.61514 12.2297 5.54732 12.1845 5.42173C12.1393 5.29614 12.0916 5.22833 12.0413 5.21828C11.9609 5.21828 11.8806 5.29363 11.8002 5.44434C11.8303 5.36396 11.7751 5.28861 11.6344 5.21828C11.4938 5.14795 11.3732 5.10776 11.2727 5.09772C11.4636 4.97715 11.4234 4.84152 11.1522 4.69081C11.0818 4.65062 10.9789 4.62551 10.8432 4.61546C10.7076 4.60541 10.6096 4.62551 10.5493 4.67574C10.4991 4.74607 10.4715 4.80384 10.4665 4.84905C10.4614 4.89426 10.4865 4.93445 10.5418 4.96962C10.5971 5.00478 10.6498 5.03241 10.7 5.05251C10.7503 5.0726 10.8081 5.09269 10.8734 5.11279C10.9387 5.13288 10.9814 5.14795 11.0015 5.158C11.1421 5.25847 11.1823 5.3288 11.122 5.36899C11.1019 5.37903 11.0592 5.39662 10.9939 5.42173C10.9286 5.44685 10.8708 5.46946 10.8206 5.48955C10.7704 5.50964 10.7402 5.52974 10.7302 5.54983C10.7 5.59002 10.7 5.66035 10.7302 5.76082C10.7603 5.86129 10.7503 5.93162 10.7 5.97181C10.6498 5.92157 10.6046 5.83366 10.5644 5.70807C10.5242 5.58249 10.4891 5.4996 10.4589 5.45941C10.5292 5.54983 10.4037 5.57997 10.0822 5.54983L9.93145 5.53476C9.89126 5.53476 9.81089 5.54481 9.69032 5.5649C9.56976 5.585 9.46678 5.59002 9.38138 5.57997C9.29598 5.56993 9.22816 5.52974 9.17792 5.45941C9.13774 5.37903 9.13774 5.27856 9.17792 5.158C9.18797 5.11781 9.20807 5.10776 9.23821 5.12786C9.19802 5.09772 9.14276 5.04999 9.07243 4.98469C9.0021 4.91938 8.95187 4.87668 8.92172 4.85659C8.45956 5.00729 7.98735 5.21326 7.50509 5.47448C7.56538 5.48453 7.62566 5.4795 7.68594 5.45941C7.73618 5.43932 7.80148 5.40666 7.88186 5.36145C7.96223 5.31624 8.01247 5.28861 8.03256 5.27856C8.37416 5.13791 8.58515 5.10274 8.66553 5.17307L8.74088 5.09772C8.88154 5.25847 8.98201 5.38406 9.04229 5.47448C8.97196 5.43429 8.82125 5.42927 8.59017 5.45941C8.38923 5.51969 8.27872 5.57997 8.25862 5.64025C8.32895 5.76082 8.35407 5.85124 8.33397 5.91153C8.29379 5.88138 8.23602 5.83115 8.16066 5.76082C8.08531 5.69049 8.01247 5.63523 7.94214 5.59505C7.87181 5.55486 7.79646 5.52974 7.71608 5.51969C7.55533 5.51969 7.44481 5.52472 7.38453 5.53476C5.91766 6.33852 4.73714 7.45374 3.84295 8.88042C3.91328 8.95075 3.97356 8.99094 4.0238 9.00099C4.06399 9.01103 4.08911 9.05624 4.09915 9.13662C4.1092 9.217 4.12176 9.27225 4.13683 9.3024C4.1519 9.33254 4.20967 9.31747 4.31014 9.25718C4.40056 9.33756 4.41563 9.43301 4.35535 9.54353C4.3654 9.53348 4.58643 9.66911 5.01846 9.95043C5.20935 10.1212 5.31484 10.2267 5.33494 10.2669C5.36508 10.3774 5.31484 10.4679 5.18423 10.5382C5.17418 10.5181 5.12897 10.4729 5.0486 10.4025C4.96822 10.3322 4.92301 10.3121 4.91296 10.3423C4.88282 10.3925 4.88533 10.4854 4.9205 10.6211C4.95566 10.7567 5.00841 10.8195 5.07874 10.8095C5.00841 10.8095 4.96068 10.8898 4.93557 11.0506C4.91045 11.2113 4.89789 11.3897 4.89789 11.5856C4.89789 11.7815 4.89287 11.8996 4.88282 11.9397L4.91296 11.9548C4.88282 12.0754 4.91045 12.2487 4.99585 12.4747C5.08125 12.7008 5.18925 12.7988 5.31987 12.7686C5.18925 12.7988 5.28972 13.0148 5.62128 13.4167C5.68156 13.497 5.72175 13.5422 5.74184 13.5523C5.77198 13.5724 5.83226 13.6101 5.92269 13.6653C6.01311 13.7206 6.08846 13.7708 6.14875 13.816C6.20903 13.8612 6.25926 13.914 6.29945 13.9743C6.33964 14.0245 6.38987 14.1375 6.45016 14.3134C6.51044 14.4892 6.58077 14.6072 6.66114 14.6675C6.64105 14.7278 6.68877 14.8283 6.80431 14.9689C6.91985 15.1096 6.9726 15.2251 6.96255 15.3155C6.95251 15.3155 6.93995 15.3206 6.92488 15.3306C6.90981 15.3407 6.89725 15.3457 6.8872 15.3457C6.91734 15.416 6.99521 15.4863 7.1208 15.5567C7.24638 15.627 7.32425 15.6923 7.35439 15.7526C7.36444 15.7827 7.37448 15.833 7.38453 15.9033C7.39458 15.9736 7.40965 16.0289 7.42974 16.0691C7.44984 16.1093 7.49002 16.1193 7.55031 16.0992C7.5704 15.8983 7.44984 15.5868 7.18861 15.1648C7.03791 14.9137 6.95251 14.768 6.93241 14.7278C6.90227 14.6776 6.87464 14.5997 6.84953 14.4942C6.82441 14.3887 6.8018 14.3159 6.78171 14.2757C6.8018 14.2757 6.83194 14.2832 6.87213 14.2983C6.91232 14.3134 6.95502 14.3309 7.00023 14.351C7.04544 14.3711 7.08312 14.3912 7.11326 14.4113C7.1434 14.4314 7.15345 14.4465 7.1434 14.4565C7.11326 14.5268 7.12331 14.6148 7.17354 14.7203C7.22378 14.8257 7.28406 14.9187 7.35439 14.9991C7.42472 15.0794 7.51012 15.1749 7.61059 15.2854C7.71106 15.3959 7.77134 15.4612 7.79143 15.4813C7.85172 15.5416 7.92205 15.6396 8.00242 15.7752C8.0828 15.9108 8.0828 15.9786 8.00242 15.9786C8.09284 15.9786 8.19332 16.0314 8.30383 16.1369C8.41435 16.2424 8.49975 16.3403 8.56003 16.4308C8.61027 16.5111 8.65045 16.6417 8.6806 16.8226C8.71074 17.0034 8.73586 17.124 8.75595 17.1843C8.77604 17.2546 8.81874 17.3224 8.88405 17.3877C8.94935 17.453 9.01215 17.5008 9.07243 17.5309C9.13271 17.5611 9.21309 17.6012 9.31356 17.6515C9.41403 17.7017 9.47933 17.7369 9.50948 17.757C9.55971 17.7771 9.65265 17.8298 9.78828 17.9152C9.92392 18.0006 10.0319 18.0584 10.1123 18.0885C10.2128 18.1287 10.2931 18.1488 10.3534 18.1488C10.4137 18.1488 10.4865 18.1362 10.5719 18.1111C10.6573 18.086 10.7252 18.0684 10.7754 18.0584C10.9261 18.0383 11.0718 18.1136 11.2124 18.2844C11.3531 18.4552 11.4586 18.5607 11.5289 18.6009C11.8906 18.7918 12.1669 18.8471 12.3578 18.7667C12.3377 18.7767 12.3402 18.8144 12.3653 18.8797C12.3905 18.945 12.4306 19.0229 12.4859 19.1133C12.5412 19.2037 12.5864 19.2766 12.6215 19.3318C12.6567 19.3871 12.6843 19.4298 12.7044 19.4599C12.7547 19.5202 12.8451 19.5956 12.9757 19.686C13.1063 19.7764 13.1967 19.8518 13.247 19.9121C13.3073 19.8719 13.3424 19.8267 13.3525 19.7764C13.3223 19.8568 13.3575 19.9573 13.458 20.0778C13.5584 20.1984 13.6489 20.2486 13.7292 20.2285C13.8699 20.1984 13.9402 20.0376 13.9402 19.7463C13.6288 19.897 13.3826 19.8066 13.2018 19.475C13.2018 19.465 13.1892 19.4373 13.1641 19.3921C13.139 19.3469 13.1189 19.3042 13.1038 19.264C13.0887 19.2238 13.0762 19.1811 13.0661 19.1359C13.0561 19.0907 13.0561 19.053 13.0661 19.0229C13.0762 18.9928 13.1013 18.9777 13.1415 18.9777C13.2319 18.9777 13.2821 18.9601 13.2922 18.9249C13.3022 18.8898 13.2922 18.827 13.262 18.7366C13.2319 18.6461 13.2118 18.5808 13.2018 18.5406C13.1917 18.4603 13.1365 18.3598 13.036 18.2392C12.9355 18.1187 12.8752 18.0433 12.8551 18.0132C12.8049 18.1036 12.7245 18.1438 12.614 18.1337C12.5035 18.1237 12.4231 18.0785 12.3729 17.9981C12.3729 18.0081 12.3653 18.0358 12.3503 18.081C12.3352 18.1262 12.3277 18.1588 12.3277 18.1789C12.1971 18.1789 12.1217 18.1739 12.1016 18.1639C12.1117 18.1337 12.1242 18.0458 12.1393 17.9001C12.1544 17.7545 12.1719 17.6414 12.192 17.5611C12.2021 17.5209 12.2297 17.4606 12.2749 17.3802C12.3201 17.2998 12.3578 17.227 12.3879 17.1617C12.4181 17.0964 12.4382 17.0336 12.4482 16.9733C12.4583 16.913 12.4357 16.8653 12.3804 16.8301C12.3252 16.795 12.2372 16.7824 12.1167 16.7925C11.9258 16.8025 11.7952 16.903 11.7248 17.0939C11.7148 17.124 11.6997 17.1768 11.6796 17.2521C11.6595 17.3275 11.6344 17.3852 11.6043 17.4254C11.5741 17.4656 11.5289 17.5008 11.4686 17.5309C11.3983 17.5611 11.2778 17.5711 11.107 17.5611C10.9362 17.551 10.8156 17.5259 10.7453 17.4857C10.6146 17.4053 10.5016 17.2596 10.4062 17.0487C10.3107 16.8377 10.263 16.6518 10.263 16.491C10.263 16.3906 10.2756 16.2575 10.3007 16.0917C10.3258 15.9259 10.3409 15.8003 10.3459 15.7149C10.3509 15.6295 10.3233 15.5064 10.263 15.3457C10.2931 15.3256 10.3384 15.2779 10.3986 15.2025C10.4589 15.1272 10.5092 15.0744 10.5493 15.0443C10.5694 15.0342 10.592 15.0267 10.6172 15.0217C10.6423 15.0166 10.6649 15.0166 10.685 15.0217C10.7051 15.0267 10.7252 15.0192 10.7453 14.9991C10.7654 14.979 10.7804 14.9488 10.7905 14.9086C10.7804 14.8986 10.7603 14.8835 10.7302 14.8634C10.7 14.8333 10.68 14.8182 10.6699 14.8182C10.7402 14.8484 10.8834 14.8408 11.0994 14.7956C11.3154 14.7504 11.4536 14.7579 11.5139 14.8182C11.6646 14.9287 11.7751 14.9187 11.8454 14.7881C11.8454 14.778 11.8329 14.7303 11.8077 14.6449C11.7826 14.5595 11.7801 14.4917 11.8002 14.4415C11.8504 14.7127 11.9961 14.7579 12.2372 14.5771C12.2674 14.6072 12.3452 14.6323 12.4708 14.6524C12.5964 14.6725 12.6843 14.6976 12.7346 14.7278C12.7647 14.7479 12.7999 14.7755 12.8401 14.8107C12.8803 14.8458 12.9079 14.8684 12.923 14.8785C12.938 14.8885 12.9631 14.886 12.9983 14.871C13.0335 14.8559 13.0762 14.8232 13.1264 14.773C13.2269 14.9137 13.2872 15.0342 13.3073 15.1347C13.4178 15.5366 13.5132 15.7576 13.5936 15.7978C13.6639 15.8279 13.7192 15.838 13.7594 15.8279C13.7996 15.8179 13.8222 15.7702 13.8272 15.6848C13.8322 15.5994 13.8322 15.529 13.8272 15.4738C13.8222 15.4185 13.8146 15.3557 13.8046 15.2854L13.7895 15.1648C13.7895 15.0744 13.7895 14.984 13.7895 14.8936L13.7744 14.773C13.6237 14.7429 13.5308 14.6826 13.4956 14.5922C13.4605 14.5017 13.468 14.4088 13.5182 14.3134C13.5685 14.2179 13.6438 14.125 13.7443 14.0345C13.7543 14.0245 13.7945 14.0069 13.8649 13.9818C13.9352 13.9567 14.0131 13.924 14.0985 13.8838C14.1839 13.8437 14.2466 13.8035 14.2868 13.7633C14.4978 13.5724 14.5732 13.3966 14.5129 13.2358C14.5832 13.2358 14.6385 13.1906 14.6787 13.1002C14.6686 13.1002 14.6435 13.0851 14.6033 13.055C14.5631 13.0248 14.5255 12.9997 14.4903 12.9796C14.4551 12.9595 14.4325 12.9495 14.4225 12.9495C14.5129 12.8992 14.5229 12.8189 14.4526 12.7083C14.5028 12.6782 14.5405 12.6229 14.5656 12.5426C14.5908 12.4622 14.6284 12.412 14.6787 12.3919C14.7691 12.5124 14.8746 12.5225 14.9952 12.422C15.0755 12.3416 15.0806 12.2612 15.0102 12.1809C15.0605 12.1105 15.1634 12.0578 15.3192 12.0226C15.4749 11.9875 15.5678 11.9397 15.598 11.8795C15.6683 11.8996 15.7085 11.8895 15.7185 11.8493C15.7286 11.8091 15.7336 11.7488 15.7336 11.6685C15.7336 11.5881 15.7487 11.5278 15.7788 11.4876C15.819 11.4374 15.8944 11.3922 16.0049 11.352C16.1154 11.3118 16.1807 11.2867 16.2008 11.2766L16.457 11.1109C16.4871 11.0707 16.4871 11.0506 16.457 11.0506C16.6378 11.0707 16.7936 11.0154 16.9242 10.8848C17.0247 10.7743 16.9945 10.6738 16.8338 10.5834C16.8639 10.5231 16.8488 10.4754 16.7885 10.4402C16.7283 10.4051 16.6529 10.3774 16.5625 10.3573C16.5926 10.3473 16.6504 10.3448 16.7358 10.3498C16.8212 10.3548 16.8739 10.3473 16.894 10.3272C17.0447 10.2267 17.0096 10.1463 16.7885 10.0861C16.6177 10.0358 16.4017 10.0961 16.1405 10.2669ZM13.684 23.4838C15.7537 23.1221 17.517 22.1726 18.9738 20.6354C18.9436 20.6053 18.8808 20.5827 18.7854 20.5676C18.6899 20.5526 18.6272 20.535 18.597 20.5149C18.4162 20.4445 18.2956 20.4044 18.2353 20.3943C18.2454 20.324 18.2328 20.2587 18.1976 20.1984C18.1625 20.1381 18.1223 20.0929 18.0771 20.0628C18.0319 20.0326 17.9691 19.9924 17.8887 19.9422C17.8083 19.892 17.7531 19.8568 17.7229 19.8367C17.7028 19.8166 17.6677 19.7865 17.6174 19.7463C17.5672 19.7061 17.532 19.6785 17.5119 19.6634C17.4918 19.6483 17.4542 19.6257 17.3989 19.5956C17.3436 19.5654 17.3009 19.5554 17.2708 19.5654C17.2407 19.5755 17.1904 19.5805 17.1201 19.5805L17.0749 19.5956C17.0447 19.6056 17.0171 19.6182 16.992 19.6333C16.9669 19.6483 16.9393 19.6634 16.9091 19.6785C16.879 19.6935 16.8589 19.7086 16.8488 19.7237C16.8388 19.7387 16.8388 19.7513 16.8488 19.7614C16.6378 19.5906 16.457 19.48 16.3063 19.4298C16.2561 19.4198 16.2008 19.3921 16.1405 19.3469C16.0802 19.3017 16.0275 19.2665 15.9823 19.2414C15.9371 19.2163 15.8868 19.2088 15.8316 19.2188C15.7763 19.2289 15.7185 19.264 15.6583 19.3243C15.608 19.3745 15.5779 19.4499 15.5678 19.5504C15.5578 19.6508 15.5477 19.7161 15.5377 19.7463C15.4674 19.696 15.4674 19.6081 15.5377 19.4825C15.608 19.357 15.6181 19.264 15.5678 19.2037C15.5377 19.1435 15.4849 19.1209 15.4096 19.1359C15.3342 19.151 15.274 19.1736 15.2287 19.2037C15.1835 19.2339 15.1258 19.2766 15.0554 19.3318C14.9851 19.3871 14.9399 19.4198 14.9198 19.4298C14.8997 19.4398 14.857 19.4675 14.7917 19.5127C14.7264 19.5579 14.6837 19.5956 14.6636 19.6257C14.6335 19.6659 14.6033 19.7262 14.5732 19.8066C14.543 19.8869 14.5179 19.9422 14.4978 19.9723C14.4777 19.9321 14.42 19.8995 14.3245 19.8744C14.2291 19.8493 14.1813 19.8216 14.1813 19.7915C14.2014 19.892 14.2215 20.0678 14.2416 20.319C14.2617 20.5701 14.2868 20.761 14.317 20.8916C14.3873 21.2031 14.327 21.4442 14.1361 21.615C13.8649 21.8662 13.7192 22.0671 13.6991 22.2178C13.6589 22.4389 13.7192 22.5695 13.8799 22.6097C13.8799 22.68 13.8397 22.783 13.7594 22.9186C13.679 23.0543 13.6438 23.1623 13.6539 23.2426C13.6539 23.3029 13.6639 23.3833 13.684 23.4838Z" fill="white"/>
</g>
<defs>
<clipPath id="clip0_602_319">
<rect width="23.1535" height="27.0064" fill="white" transform="matrix(1 0 0 -1 0.434082 27.4925)"/>
</clipPath>
</defs>
</svg>
