<svg width="41" height="50" viewBox="0 0 41 50" fill="none" xmlns="http://www.w3.org/2000/svg">
<g id="SVG">
<path id="Vector" fill-rule="evenodd" clip-rule="evenodd" d="M24.4847 26.5439C24.0081 26.5439 23.0907 28.3248 22.5397 28.3248C22.3962 28.3188 22.2569 28.2746 22.1362 28.1967C21.1086 27.6817 20.2092 27.1499 19.3648 26.3428C18.6665 25.6816 17.8965 24.6899 17.4942 23.8277C17.4387 23.746 17.4063 23.6508 17.4007 23.5522C17.4007 23.1294 18.6691 22.3414 18.6691 21.6431C18.6691 21.4599 17.7338 18.9653 17.6031 18.6514C17.4199 18.1748 17.3289 18.0274 16.8343 18.0274C16.5947 18.0274 16.3731 17.9723 16.1553 17.9723C15.7683 17.9723 15.4762 18.1197 15.1995 18.3759C14.318 19.2023 13.8772 20.0646 13.8413 21.2767V21.4228C13.8221 22.6912 14.4461 23.9558 15.1444 24.9846C16.7203 27.3165 18.3552 29.3537 20.9792 30.5452C21.7684 30.913 23.5865 31.683 24.4668 31.683C25.5135 31.683 27.2214 31.0232 27.6417 29.9943C27.8082 29.5715 27.9543 29.059 27.9543 28.6003C27.9543 28.526 27.9543 28.4158 27.9159 28.3248C27.7878 28.1045 24.7973 26.5439 24.4847 26.5439ZM20.7588 36.2724C18.5205 36.2724 16.3001 35.5934 14.4269 34.3634L9.98478 35.7753L11.4352 31.4998C10.0044 29.5381 9.23276 27.1731 9.23141 24.745C9.23141 18.3964 14.4077 13.2202 20.7588 13.2202C27.11 13.2202 32.2875 18.3952 32.2875 24.7438C32.2875 31.0962 27.1112 36.2724 20.7588 36.2724ZM20.7588 10.9062C13.1226 10.9062 6.92131 17.1101 6.92131 24.7438C6.92131 27.2601 7.60037 29.7381 8.90212 31.8854L6.40625 39.3193L14.0604 36.8593C16.168 38.0227 18.5425 38.6166 20.9497 38.5823C23.3568 38.548 25.7134 37.8867 27.787 36.6637C29.8606 35.4406 31.5794 33.6981 32.774 31.608C33.9685 29.5179 34.5975 27.1524 34.5989 24.745C34.5989 17.1113 28.3951 10.9062 20.7588 10.9062Z" fill="white"/>
</g>
</svg>
