<svg width="30" height="30" viewBox="0 0 30 30" fill="none" xmlns="http://www.w3.org/2000/svg">
<g id="akar-icons:youtube-fill" clip-path="url(#clip0_204_246)">
<rect id="Rectangle 6" x="5" y="7" width="20" height="13" fill="white"/>
<g id="Group">
<g id="Group_2">
<path id="Vector" d="M29.375 8.13375C29.2052 7.52779 28.8743 6.97919 28.4175 6.54625C27.9479 6.10001 27.3723 5.7808 26.745 5.61875C24.3975 5 14.9925 5 14.9925 5C11.0717 4.95539 7.15183 5.1516 3.25504 5.5875C2.62778 5.76152 2.05324 6.08786 1.58254 6.5375C1.12004 6.9825 0.785039 7.53125 0.610039 8.1325C0.189655 10.3972 -0.0145959 12.6967 3.90572e-05 15C-0.0149609 17.3013 0.188789 19.6 0.610039 21.8675C0.781289 22.4663 1.11504 23.0125 1.57879 23.4538C2.04254 23.895 2.62004 24.2138 3.25504 24.3825C5.63379 25 14.9925 25 14.9925 25C18.9184 25.0447 22.8432 24.8485 26.745 24.4125C27.3723 24.2505 27.9479 23.9312 28.4175 23.485C28.88 23.0438 29.2088 22.495 29.3738 21.8975C29.8052 19.6337 30.0149 17.3332 30 15.0288C30.0325 12.7145 29.823 10.4032 29.375 8.1325V8.13375ZM12.0025 19.28V10.7213L19.8275 15.0013L12.0025 19.28Z" fill="#FF0401"/>
</g>
</g>
</g>
<defs>
<clipPath id="clip0_204_246">
<rect width="30" height="30" fill="white"/>
</clipPath>
</defs>
</svg>
