<svg width="20" height="21" viewBox="0 0 20 21" fill="none" xmlns="http://www.w3.org/2000/svg">
<g id="akar-icons:youtube-fill" clip-path="url(#clip0_355_782)">
<g id="Group">
<g id="Group_2">
<path id="Vector" d="M19.2067 5.96388C19.0966 5.57131 18.8823 5.2159 18.5864 4.93543C18.2821 4.64633 17.9092 4.43954 17.5028 4.33456C15.982 3.9337 9.88907 3.9337 9.88907 3.9337C7.34898 3.9048 4.80952 4.03191 2.28501 4.31431C1.87864 4.42705 1.50644 4.63846 1.20149 4.92976C0.901865 5.21805 0.684838 5.57356 0.571465 5.96307C0.299123 7.43023 0.1668 8.91994 0.176281 10.4121C0.166563 11.903 0.298561 13.3922 0.571465 14.8612C0.682409 15.2491 0.898626 15.603 1.19906 15.8888C1.4995 16.1747 1.87363 16.3812 2.28501 16.4905C3.82607 16.8906 9.88907 16.8906 9.88907 16.8906C12.4324 16.9195 14.9751 16.7924 17.5028 16.51C17.9092 16.405 18.2821 16.1982 18.5864 15.9091C18.886 15.6232 19.099 15.2677 19.2059 14.8806C19.4853 13.414 19.6212 11.9237 19.6116 10.4308C19.6326 8.93149 19.4969 7.43413 19.2067 5.96307V5.96388ZM7.95202 13.1849V7.64018L13.0214 10.4129L7.95202 13.1849Z" fill="white"/>
</g>
</g>
</g>
<defs>
<clipPath id="clip0_355_782">
<rect width="19.4353" height="19.4353" fill="white" transform="translate(0.176758 0.694336)"/>
</clipPath>
</defs>
</svg>
