<svg width="20" height="21" viewBox="0 0 20 21" fill="none" xmlns="http://www.w3.org/2000/svg">
<g clip-path="url(#clip0_204_294)">
<path d="M19.2067 5.96351C19.0966 5.57094 18.8823 5.21553 18.5864 4.93506C18.2821 4.64596 17.9092 4.43916 17.5028 4.33418C15.982 3.93333 9.88907 3.93333 9.88907 3.93333C7.34898 3.90443 4.80952 4.03154 2.28501 4.31394C1.87864 4.42667 1.50644 4.63809 1.20149 4.92939C0.901865 5.21768 0.684838 5.57318 0.571465 5.9627C0.299123 7.42986 0.1668 8.91957 0.176281 10.4118C0.166563 11.9026 0.298561 13.3918 0.571465 14.8608C0.682409 15.2487 0.898626 15.6026 1.19906 15.8885C1.4995 16.1743 1.87363 16.3808 2.28501 16.4901C3.82607 16.8902 9.88907 16.8902 9.88907 16.8902C12.4324 16.9191 14.9751 16.792 17.5028 16.5096C17.9092 16.4046 18.2821 16.1978 18.5864 15.9087C18.886 15.6228 19.099 15.2673 19.2059 14.8803C19.4853 13.4137 19.6212 11.9233 19.6116 10.4304C19.6326 8.93112 19.4969 7.43376 19.2067 5.9627V5.96351ZM7.95202 13.1845V7.6398L13.0214 10.4126L7.95202 13.1845Z" fill="white"/>
</g>
<defs>
<clipPath id="clip0_204_294">
<rect width="19.4353" height="19.4353" fill="white" transform="translate(0.17627 0.694115)"/>
</clipPath>
</defs>
</svg>
